<svg id="Layer_1" data-name="Layer 1" xmlns="http://www.w3.org/2000/svg" viewBox="0 0 144 144"><defs><style>.cls-1,.cls-2{fill:#ee3124;}.cls-2{fill-rule:evenodd;}</style></defs><g id="Layer_1-2" data-name="Layer 1"><path class="cls-1" d="M22.86,126.77h2.2c1.44,0,2.51,0,3.34.76a3.22,3.22,0,0,1,1.06,2.58,3,3,0,0,1-3.26,3H24.76l4.55,7.36h1.82l-3.72-6A4.27,4.27,0,0,0,31.13,130a4.81,4.81,0,0,0-2-3.94,5.81,5.81,0,0,0-3.64-.91h-4.1v15.25h1.52V126.77Z"/><polygon class="cls-1" points="39.94 132.08 39.94 126.77 46.31 126.77 46.31 125.25 38.42 125.25 38.42 140.51 46.31 140.51 46.31 138.99 39.94 138.99 39.94 133.6 46.31 133.6 46.31 132.08 39.94 132.08"/><path class="cls-2" d="M61.88,134.36H56.11L59,126.69Zm-8.13,6.15,1.83-4.78h6.75l1.82,4.78h1.6l-5.92-15.26H58l-5.93,15.26Z"/><polygon class="cls-1" points="78.8 140.51 78.8 138.99 73.42 138.99 73.42 125.25 71.9 125.25 71.9 140.51 78.8 140.51"/><polygon class="cls-1" points="88.06 140.51 88.06 126.77 91.1 126.77 91.1 125.25 83.51 125.25 83.51 126.77 86.55 126.77 86.55 140.51 88.06 140.51"/><path class="cls-2" d="M96,132.77a7.75,7.75,0,0,0,7.74,8,7.86,7.86,0,0,0,5.84-2.58,7.6,7.6,0,0,0,2-5.46,7.48,7.48,0,0,0-2.35-5.62,7.7,7.7,0,0,0-5.47-2.2,7.53,7.53,0,0,0-5.39,2.2A7.65,7.65,0,0,0,96,132.77m1.59,0a6.69,6.69,0,0,1,2.35-5,5.94,5.94,0,0,1,3.8-1.45,6.5,6.5,0,0,1,.15,13,6.21,6.21,0,0,1-6.3-6.53"/><path class="cls-1" d="M119.87,126.77h2.2c1.44,0,2.51,0,3.34.76a3.22,3.22,0,0,1,1.06,2.58,3,3,0,0,1-3.26,3h-1.44l4.55,7.36h1.75l-3.72-5.92a4.29,4.29,0,0,0,3.72-4.48,4.85,4.85,0,0,0-2-4,5.85,5.85,0,0,0-3.65-.91h-4.1v15.26h1.44V126.77Z"/><path class="cls-2" d="M78.5,60.58l-.08-41.52h12c10.78-.08,21.94,7.51,21.94,21.4.07,16.55-15,20.27-22,20.19Zm0,.6L120,102.4H78.5ZM36.67,19H67L67,102.18H36.67ZM21.49,4H128V118H21.49Z"/><path class="cls-2" d="M131,119.56a2.74,2.74,0,0,0-2.12.91,3,3,0,0,0-.91,2.2,2.75,2.75,0,0,0,.91,2.13,3,3,0,0,0,4.32,0,2.88,2.88,0,0,0,.92-2.13,3,3,0,0,0-.92-2.2,3,3,0,0,0-2.2-.91m2.74,3a2.52,2.52,0,0,1-.76,1.89,2.78,2.78,0,0,1-2,.84,2.72,2.72,0,0,1-1.89-.84,2.67,2.67,0,0,1-.84-1.89,2.86,2.86,0,0,1,.84-2,2.5,2.5,0,0,1,1.89-.76,2.78,2.78,0,0,1,2,.84,2.63,2.63,0,0,1,.76,1.9M131,120.77h-1.29v3.5h.53v-1.52h.84l.75,1.52h.61l-.76-1.6a.9.9,0,0,0,.84-.91c0-.68-.53-1-1.52-1m-.08.38c.69,0,1,.15,1,.69s-.3.6-1,.6h-.68v-1.29Z"/></g></svg>