<?xml version="1.0" encoding="utf-8"?>
<!-- Generator: Adobe Illustrator 24.3.0, SVG Export Plug-In . SVG Version: 6.00 Build 0)  -->
<svg version="1.1" id="Layer_1" xmlns="http://www.w3.org/2000/svg" xmlns:xlink="http://www.w3.org/1999/xlink" x="0px" y="0px"
	 viewBox="0 0 612 792" style="enable-background:new 0 0 612 792;" xml:space="preserve">
<style type="text/css">
	.st0{fill:#4B817E;}
	.st1{fill:none;stroke:#FCB853;stroke-width:1.5;}
	.st2{fill:url(#SVGID_1_);}
	.st3{fill:url(#SVGID_2_);}
	.st4{fill:url(#SVGID_3_);}
	.st5{fill:url(#SVGID_4_);}
	.st6{fill:url(#SVGID_5_);}
	.st7{fill:url(#SVGID_6_);}
	.st8{fill:url(#SVGID_7_);}
	.st9{fill:url(#SVGID_8_);}
	.st10{fill:url(#SVGID_9_);}
	.st11{fill:#FFEBB2;}
	.st12{fill:#FCB853;}
	.st13{fill:#994209;}
	.st14{fill:url(#SVGID_10_);}
</style>
<g>
	<g>
		<path class="st0" d="M329.4,327.25c0-4.15-0.26-4.71-2.31-5.28c-0.41-0.1-1.28-0.15-1.74-0.15c-0.21,0-0.41-0.1-0.41-0.31
			c0-0.31,0.26-0.41,0.82-0.41c2.31,0,5.53,0.15,5.79,0.15c0.26,0,3.48-0.15,5.02-0.15c0.56,0,0.82,0.1,0.82,0.41
			c0,0.21-0.21,0.31-0.41,0.31c-0.36,0-0.67,0.05-1.28,0.15c-1.38,0.26-1.79,1.13-1.9,2.92c-0.1,1.64-0.1,3.18-0.1,5.33v5.74
			c0,2.3-0.05,2.41-0.67,2.77c-3.28,1.74-7.89,2.3-10.86,2.3c-3.89,0-11.17-0.51-16.85-5.48c-3.12-2.71-6.1-8.2-6.1-14.6
			c0-8.2,4-13.98,8.55-16.85c4.61-2.87,9.68-3.23,13.62-3.23c3.23,0,6.86,0.67,7.84,0.87c1.08,0.26,2.87,0.46,4.15,0.51
			c0.51,0.05,0.62,0.26,0.62,0.46c0,0.72-0.36,2.15-0.36,7.27c0,0.82-0.1,1.08-0.46,1.08c-0.26,0-0.31-0.31-0.36-0.77
			c-0.05-0.72-0.31-2.15-1.08-3.38c-1.28-1.95-5.43-4.15-12.04-4.15c-3.23,0-7.07,0.31-10.96,3.38c-2.97,2.36-5.07,7.02-5.07,13.01
			c0,7.22,3.64,12.45,5.43,14.19c4.05,3.94,8.71,5.48,13.42,5.48c1.84,0,4.51-0.31,5.84-1.08c0.67-0.36,1.02-0.92,1.02-1.79V327.25z
			"/>
		<path class="st0" d="M345.53,319.98c0-6.76,0-7.99-0.1-9.37c-0.1-1.49-0.36-2.2-1.84-2.41c-0.36-0.05-1.13-0.1-1.54-0.1
			c-0.15,0-0.36-0.21-0.36-0.36c0-0.26,0.21-0.36,0.72-0.36c2.05,0,5.07,0.1,5.33,0.1c0.46,0,4.25-0.1,5.63-0.1
			c2.87,0,6.04,0.26,8.4,1.9c1.13,0.82,3.12,2.92,3.12,5.94c0,3.23-1.33,6.35-5.53,9.94c3.69,4.61,6.81,8.55,9.43,11.27
			c2.41,2.46,3.89,2.87,5.02,3.02c0.87,0.15,1.33,0.15,1.59,0.15c0.26,0,0.41,0.2,0.41,0.36c0,0.26-0.26,0.36-1.08,0.36h-2.82
			c-2.56,0-3.69-0.26-4.82-0.87c-1.95-1.02-3.58-3.12-6.15-6.4c-1.9-2.36-3.89-5.17-4.87-6.35c-0.21-0.2-0.31-0.26-0.62-0.26
			l-5.74-0.1c-0.2,0-0.31,0.1-0.31,0.36v1.02c0,4.2,0,7.58,0.2,9.37c0.15,1.28,0.41,2.1,1.79,2.3c0.62,0.1,1.59,0.21,2,0.21
			c0.31,0,0.36,0.2,0.36,0.36c0,0.21-0.2,0.36-0.72,0.36c-2.46,0-5.33-0.15-5.53-0.15c-0.05,0-3.07,0.15-4.46,0.15
			c-0.46,0-0.72-0.1-0.72-0.36c0-0.15,0.1-0.36,0.36-0.36c0.41,0,0.97-0.1,1.38-0.21c0.87-0.2,0.97-1.02,1.18-2.3
			c0.26-1.79,0.26-5.23,0.26-9.43V319.98z M349.43,323.67c0,0.26,0.1,0.41,0.31,0.56c0.67,0.36,2.97,0.67,4.97,0.67
			c1.08,0,2.31-0.05,3.38-0.77c1.54-1.02,2.71-3.33,2.71-6.66c0-5.43-2.97-8.55-7.79-8.55c-1.33,0-2.77,0.15-3.23,0.26
			c-0.21,0.1-0.36,0.26-0.36,0.51V323.67z"/>
		<path class="st0" d="M391.89,308.25c0.56-1.43,0.77-1.69,1.08-1.69c0.46,0,0.62,0.61,1.08,1.59c0.82,1.84,8.04,19.82,10.81,26.43
			c1.64,3.89,2.87,4.46,3.84,4.76c0.67,0.21,1.33,0.26,1.79,0.26c0.26,0,0.56,0.1,0.56,0.36c0,0.26-0.51,0.36-1.02,0.36
			c-0.67,0-4,0-7.12-0.1c-0.87-0.05-1.59-0.05-1.59-0.31c0-0.2,0.1-0.2,0.31-0.31c0.26-0.1,0.72-0.46,0.41-1.18l-4.05-9.99
			c-0.1-0.2-0.15-0.26-0.41-0.26h-10.4c-0.21,0-0.36,0.1-0.46,0.36l-2.56,6.97c-0.41,1.08-0.67,2.15-0.67,2.92
			c0,0.87,0.77,1.18,1.54,1.18h0.41c0.36,0,0.46,0.15,0.46,0.36c0,0.26-0.26,0.36-0.67,0.36c-1.08,0-3.53-0.15-4.05-0.15
			c-0.46,0-2.71,0.15-4.56,0.15c-0.56,0-0.87-0.1-0.87-0.36c0-0.2,0.21-0.36,0.41-0.36c0.31,0,0.97-0.05,1.33-0.1
			c2.05-0.26,2.92-1.79,3.79-4L391.89,308.25z M396.91,326.38c0.21,0,0.21-0.1,0.15-0.31l-4.46-11.94c-0.26-0.67-0.51-0.67-0.77,0
			l-4.2,11.94c-0.05,0.2,0,0.31,0.15,0.31H396.91z"/>
		<path class="st0" d="M417.81,319.98c0-6.76,0-7.99-0.1-9.37c-0.1-1.49-0.36-2.2-1.84-2.41c-0.36-0.05-1.13-0.1-1.54-0.1
			c-0.15,0-0.36-0.21-0.36-0.36c0-0.26,0.21-0.36,0.72-0.36c2.05,0,4.97,0.1,5.22,0.1c0.51,0,3.38-0.1,6.04-0.1
			c4.51,0,12.75-0.41,18.08,4.97c2.25,2.25,4.41,5.89,4.41,11.06c0,5.48-2.36,9.68-4.87,12.24c-1.95,2-5.99,5.02-13.68,5.02
			c-1.95,0-4.35-0.15-6.3-0.26c-1.95-0.15-3.48-0.26-3.69-0.26c-0.1,0-0.92,0.05-1.84,0.05c-0.92,0.05-2,0.1-2.72,0.1
			c-0.46,0-0.72-0.1-0.72-0.36c0-0.15,0.1-0.36,0.36-0.36c0.41,0,0.97-0.1,1.38-0.21c0.87-0.2,0.97-1.02,1.18-2.3
			c0.26-1.79,0.26-5.23,0.26-9.43V319.98z M421.91,324.69c0,4.61,0,8.66,0.05,9.48c0.05,1.08,0.15,2.66,0.51,3.12
			c0.56,0.82,2.15,1.74,7.48,1.74c4.15,0,7.84-1.38,10.55-3.94c2.36-2.2,3.53-6.35,3.53-10.35c0-5.53-2.41-9.07-4.25-10.91
			c-4.25-4.3-9.22-4.87-14.6-4.87c-0.87,0-2.31,0.15-2.71,0.31c-0.41,0.15-0.56,0.36-0.56,0.87V324.69z"/>
		<path class="st0" d="M455.38,319.98c0-6.76,0-7.99-0.1-9.37c-0.1-1.38-0.36-2.2-1.84-2.41c-0.36-0.05-1.13-0.1-1.54-0.1
			c-0.15,0-0.36-0.21-0.36-0.36c0-0.26,0.21-0.36,0.72-0.36c2.05,0,4.76,0.1,5.17,0.1c0.41,0,3.23-0.1,4.56-0.1
			c0.51,0,0.77,0.1,0.77,0.36c0,0.15-0.21,0.36-0.41,0.36c-0.31,0-0.56,0-1.13,0.1c-1.18,0.2-1.43,0.97-1.54,2.41
			c-0.1,1.38-0.1,2.61-0.1,9.37v6.1c0,6.3,1.38,8.91,3.33,10.65c2.2,2,4.15,2.36,6.71,2.36c2.77,0,5.43-1.23,6.97-3.07
			c2.1-2.51,2.56-6.1,2.56-10.55v-5.48c0-6.76-0.05-7.99-0.1-9.37c-0.05-1.38-0.31-2.2-1.79-2.41c-0.36-0.05-1.13-0.1-1.54-0.1
			c-0.21,0-0.36-0.21-0.36-0.36c0-0.26,0.21-0.36,0.72-0.36c2,0,4.61,0.1,4.87,0.1c0.31,0,2.46-0.1,3.79-0.1
			c0.51,0,0.72,0.1,0.72,0.36c0,0.15-0.16,0.36-0.36,0.36c-0.31,0-0.56,0-1.13,0.1c-1.23,0.26-1.49,0.97-1.59,2.41
			c-0.1,1.38-0.05,2.61-0.05,9.37v4.66c0,4.71-0.61,9.99-4.2,13.06c-3.28,2.82-6.76,3.18-9.42,3.18c-1.49,0-6.2-0.1-9.37-3.07
			c-2.2-2.05-3.95-5.07-3.95-11.42V319.98z"/>
		<path class="st0" d="M499.7,308.25c0.56-1.43,0.77-1.69,1.08-1.69c0.46,0,0.62,0.61,1.08,1.59c0.82,1.84,8.04,19.82,10.81,26.43
			c1.64,3.89,2.87,4.46,3.84,4.76c0.67,0.21,1.33,0.26,1.79,0.26c0.26,0,0.56,0.1,0.56,0.36c0,0.26-0.51,0.36-1.02,0.36
			c-0.67,0-4,0-7.12-0.1c-0.87-0.05-1.59-0.05-1.59-0.31c0-0.2,0.1-0.2,0.31-0.31c0.26-0.1,0.72-0.46,0.41-1.18l-4.05-9.99
			c-0.1-0.2-0.15-0.26-0.41-0.26h-10.4c-0.21,0-0.36,0.1-0.46,0.36l-2.56,6.97c-0.41,1.08-0.67,2.15-0.67,2.92
			c0,0.87,0.77,1.18,1.54,1.18h0.41c0.36,0,0.46,0.15,0.46,0.36c0,0.26-0.26,0.36-0.67,0.36c-1.08,0-3.53-0.15-4.05-0.15
			c-0.46,0-2.72,0.15-4.56,0.15c-0.56,0-0.87-0.1-0.87-0.36c0-0.2,0.2-0.36,0.41-0.36c0.31,0,0.97-0.05,1.33-0.1
			c2.05-0.26,2.92-1.79,3.79-4L499.7,308.25z M504.72,326.38c0.21,0,0.21-0.1,0.15-0.31l-4.46-11.94c-0.26-0.67-0.51-0.67-0.77,0
			l-4.2,11.94c-0.05,0.2,0,0.31,0.15,0.31H504.72z"/>
		<path class="st0" d="M532.4,327.66c0,4.2,0,7.63,0.2,9.43c0.15,1.28,0.36,2.1,1.74,2.3c0.62,0.1,1.64,0.21,2.05,0.21
			c0.31,0,0.36,0.2,0.36,0.36c0,0.21-0.21,0.36-0.72,0.36c-2.46,0-5.33-0.15-5.58-0.15c-0.21,0-3.33,0.15-4.66,0.15
			c-0.51,0-0.72-0.1-0.72-0.36c0-0.15,0.1-0.31,0.36-0.31c0.41,0,0.92-0.1,1.33-0.21c0.92-0.2,1.18-1.08,1.33-2.36
			c0.2-1.79,0.2-5.23,0.2-9.43v-18.29l-6.5,0.1c-2.82,0.05-3.89,0.36-4.56,1.38c-0.51,0.77-0.56,1.08-0.72,1.38
			c-0.1,0.36-0.25,0.41-0.46,0.41c-0.1,0-0.31-0.1-0.31-0.36c0-0.46,0.92-4.35,0.97-4.71c0.1-0.26,0.31-0.82,0.46-0.82
			c0.31,0,0.77,0.36,2,0.51c1.28,0.15,3.02,0.21,3.54,0.21h17.01c1.49,0,2.51-0.1,3.23-0.21c0.67-0.1,1.08-0.2,1.28-0.2
			c0.21,0,0.21,0.26,0.21,0.51c0,1.33-0.15,4.46-0.15,4.97c0,0.36-0.2,0.56-0.41,0.56c-0.21,0-0.31-0.15-0.36-0.77l-0.05-0.46
			c-0.15-1.33-1.13-2.31-5.43-2.41l-5.63-0.1V327.66z"/>
		<path class="st0" d="M553.15,319.98c0-6.76,0-7.99-0.1-9.37c-0.1-1.49-0.36-2.2-1.84-2.41c-0.36-0.05-1.13-0.1-1.54-0.1
			c-0.15,0-0.36-0.21-0.36-0.36c0-0.26,0.21-0.36,0.72-0.36c2.05,0,4.97,0.1,5.22,0.1c0.31,0,9.73,0.05,10.76,0
			c0.87-0.05,1.69-0.21,2.05-0.26c0.21-0.05,0.41-0.2,0.62-0.2c0.15,0,0.2,0.2,0.2,0.41c0,0.31-0.26,0.82-0.36,2.05
			c-0.05,0.41-0.15,2.36-0.26,2.87c-0.05,0.21-0.21,0.46-0.41,0.46c-0.26,0-0.36-0.21-0.36-0.56c0-0.31-0.05-1.02-0.26-1.54
			c-0.31-0.72-0.77-1.02-3.23-1.33c-0.77-0.1-5.99-0.15-6.5-0.15c-0.21,0-0.26,0.15-0.26,0.46v11.83c0,0.31,0,0.46,0.26,0.46
			c0.56,0,6.5,0,7.53-0.1c1.08-0.1,1.74-0.15,2.2-0.61c0.31-0.31,0.51-0.56,0.67-0.56c0.15,0,0.26,0.1,0.26,0.36
			c0,0.26-0.26,0.97-0.36,2.41c-0.1,0.87-0.21,2.51-0.21,2.82c0,0.36-0.1,0.82-0.41,0.82c-0.2,0-0.31-0.15-0.31-0.41
			c0-0.41,0-0.87-0.21-1.43c-0.15-0.61-0.56-1.13-2.31-1.33c-1.23-0.15-6.04-0.21-6.81-0.21c-0.26,0-0.31,0.15-0.31,0.31v3.64
			c0,1.49-0.05,6.56,0,7.43c0.1,2.92,0.92,3.48,5.38,3.48c1.18,0,3.33,0,4.51-0.46c1.18-0.51,1.79-1.28,2.05-3.02
			c0.1-0.51,0.21-0.67,0.46-0.67c0.26,0,0.31,0.36,0.31,0.67c0,0.31-0.36,3.28-0.61,4.2c-0.31,1.13-0.77,1.13-2.51,1.13
			c-3.38,0-5.99-0.1-7.84-0.15c-1.9-0.1-3.07-0.1-3.74-0.1c-0.1,0-0.97,0-1.95,0.05c-0.87,0.05-1.9,0.1-2.61,0.1
			c-0.46,0-0.72-0.1-0.72-0.36c0-0.15,0.1-0.36,0.36-0.36c0.41,0,0.97-0.15,1.38-0.21c0.87-0.15,0.97-1.02,1.18-2.3
			c0.26-1.79,0.26-5.23,0.26-9.43V319.98z"/>
		<path class="st0" d="M577.13,336.62c0-1.43,1.84-2.77,3.18-2.77c0.26,0,0.41,0.15,0.92,0.97c0.67,1.02,0.87,1.74,0.87,2.2
			c0,0.41-0.26,1.33-0.51,2c-0.51,1.18-1.84,3.89-3.28,5.48c-0.2,0.26-0.46,0.46-0.67,0.46c-0.15,0-0.36-0.15-0.36-0.36
			c0-0.21,0.26-0.51,0.36-0.72c0.87-1.49,1.23-2.66,1.23-3.64C578.88,337.91,577.13,337.24,577.13,336.62z"/>
		<path class="st0" d="M305.07,395.62c0-7.99,0-9.42-0.1-11.06c-0.1-1.74-0.51-2.56-2.2-2.92c-0.41-0.1-1.28-0.15-1.74-0.15
			c-0.2,0-0.41-0.1-0.41-0.31c0-0.31,0.26-0.41,0.82-0.41c2.31,0,5.53,0.15,5.79,0.15c0.56,0,4.46-0.15,6.04-0.15
			c3.23,0,6.66,0.31,9.37,2.25c1.28,0.92,3.53,3.43,3.53,6.97c0,3.79-1.59,7.58-6.2,11.83c4.2,5.38,7.68,9.94,10.65,13.11
			c2.77,2.92,4.97,3.48,6.25,3.69c0.97,0.15,1.69,0.15,2,0.15c0.26,0,0.46,0.15,0.46,0.31c0,0.31-0.31,0.41-1.23,0.41h-3.64
			c-2.87,0-4.15-0.26-5.48-0.97c-2.2-1.18-4-3.69-6.92-7.53c-2.15-2.82-4.56-6.25-5.58-7.58c-0.21-0.2-0.36-0.31-0.67-0.31l-6.3-0.1
			c-0.26,0-0.36,0.15-0.36,0.41v1.23c0,4.92,0,8.96,0.26,11.12c0.15,1.49,0.46,2.61,2,2.82c0.72,0.1,1.84,0.21,2.3,0.21
			c0.31,0,0.41,0.15,0.41,0.31c0,0.26-0.26,0.41-0.82,0.41c-2.82,0-6.04-0.15-6.3-0.15c-0.05,0-3.28,0.15-4.82,0.15
			c-0.56,0-0.82-0.1-0.82-0.41c0-0.15,0.1-0.31,0.41-0.31c0.46,0,1.08-0.1,1.54-0.21c1.02-0.2,1.28-1.33,1.49-2.82
			c0.26-2.15,0.26-6.2,0.26-11.12V395.62z M309.17,400.07c0,0.26,0.1,0.46,0.36,0.61c0.77,0.46,3.12,0.82,5.38,0.82
			c1.23,0,2.66-0.15,3.84-0.97c1.79-1.23,3.12-4,3.12-7.89c0-6.4-3.38-10.24-8.86-10.24c-1.54,0-2.92,0.15-3.43,0.31
			c-0.26,0.1-0.41,0.31-0.41,0.61V400.07z"/>
		<path class="st0" d="M346.06,399.15c0-6.76,0-7.99-0.1-9.37c-0.1-1.49-0.36-2.2-1.84-2.41c-0.36-0.05-1.13-0.1-1.54-0.1
			c-0.15,0-0.36-0.21-0.36-0.36c0-0.26,0.21-0.36,0.72-0.36c2.05,0,4.97,0.1,5.22,0.1c0.31,0,9.73,0.05,10.76,0
			c0.87-0.05,1.69-0.21,2.05-0.26c0.2-0.05,0.41-0.2,0.62-0.2c0.15,0,0.2,0.2,0.2,0.41c0,0.31-0.26,0.82-0.36,2.05
			c-0.05,0.41-0.15,2.36-0.26,2.87c-0.05,0.21-0.2,0.46-0.41,0.46c-0.26,0-0.36-0.21-0.36-0.56c0-0.31-0.05-1.02-0.26-1.54
			c-0.31-0.72-0.77-1.02-3.23-1.33c-0.77-0.1-5.99-0.15-6.5-0.15c-0.21,0-0.26,0.15-0.26,0.46v11.83c0,0.31,0,0.46,0.26,0.46
			c0.56,0,6.5,0,7.53-0.1c1.08-0.1,1.74-0.15,2.2-0.61c0.31-0.31,0.51-0.56,0.67-0.56c0.15,0,0.26,0.1,0.26,0.36
			c0,0.26-0.26,0.97-0.36,2.41c-0.1,0.87-0.21,2.51-0.21,2.82c0,0.36-0.1,0.82-0.41,0.82c-0.2,0-0.31-0.15-0.31-0.41
			c0-0.41,0-0.87-0.2-1.43c-0.15-0.61-0.56-1.13-2.31-1.33c-1.23-0.15-6.04-0.21-6.81-0.21c-0.26,0-0.31,0.15-0.31,0.31v3.64
			c0,1.49-0.05,6.56,0,7.43c0.1,2.92,0.92,3.48,5.38,3.48c1.18,0,3.33,0,4.51-0.46c1.18-0.51,1.79-1.28,2.05-3.02
			c0.1-0.51,0.21-0.67,0.46-0.67c0.26,0,0.31,0.36,0.31,0.67c0,0.31-0.36,3.28-0.62,4.2c-0.31,1.13-0.77,1.13-2.51,1.13
			c-3.38,0-5.99-0.1-7.84-0.15c-1.9-0.1-3.07-0.1-3.74-0.1c-0.1,0-0.97,0-1.95,0.05c-0.87,0.05-1.9,0.1-2.61,0.1
			c-0.46,0-0.72-0.1-0.72-0.36c0-0.15,0.1-0.36,0.36-0.36c0.41,0,0.97-0.15,1.38-0.21c0.87-0.15,0.97-1.02,1.18-2.3
			c0.26-1.79,0.26-5.23,0.26-9.43V399.15z"/>
		<path class="st0" d="M383.01,387.42c0.56-1.43,0.77-1.69,1.08-1.69c0.46,0,0.62,0.61,1.08,1.59c0.82,1.84,8.04,19.82,10.81,26.43
			c1.64,3.89,2.87,4.46,3.84,4.76c0.67,0.21,1.33,0.26,1.79,0.26c0.26,0,0.56,0.1,0.56,0.36c0,0.26-0.51,0.36-1.02,0.36
			c-0.67,0-3.99,0-7.12-0.1c-0.87-0.05-1.59-0.05-1.59-0.31c0-0.2,0.1-0.2,0.31-0.31c0.26-0.1,0.72-0.46,0.41-1.18l-4.05-9.99
			c-0.1-0.2-0.15-0.26-0.41-0.26h-10.4c-0.21,0-0.36,0.1-0.46,0.36l-2.56,6.97c-0.41,1.08-0.67,2.15-0.67,2.92
			c0,0.87,0.77,1.18,1.54,1.18h0.41c0.36,0,0.46,0.15,0.46,0.36c0,0.26-0.26,0.36-0.67,0.36c-1.08,0-3.53-0.15-4.05-0.15
			c-0.46,0-2.71,0.15-4.56,0.15c-0.56,0-0.87-0.1-0.87-0.36c0-0.2,0.2-0.36,0.41-0.36c0.31,0,0.97-0.05,1.33-0.1
			c2.05-0.26,2.92-1.79,3.79-4L383.01,387.42z M388.03,405.55c0.21,0,0.21-0.1,0.15-0.31l-4.46-11.94c-0.26-0.67-0.51-0.67-0.77,0
			l-4.2,11.94c-0.05,0.2,0,0.31,0.15,0.31H388.03z"/>
		<path class="st0" d="M414.05,406.94c0,6.4,0.1,9.02,0.92,9.78c0.72,0.72,2.46,1.02,5.99,1.02c2.36,0,4.35-0.05,5.43-1.33
			c0.56-0.67,0.92-1.59,1.08-2.46c0.05-0.31,0.21-0.56,0.46-0.56c0.2,0,0.31,0.21,0.31,0.67c0,0.46-0.31,3.07-0.67,4.35
			c-0.31,1.02-0.46,1.18-2.87,1.18c-3.23,0-5.74-0.05-7.84-0.15c-2.05-0.05-3.58-0.1-4.92-0.1c-0.21,0-0.97,0-1.84,0.05
			c-0.92,0.05-1.9,0.1-2.61,0.1c-0.46,0-0.72-0.1-0.72-0.36c0-0.15,0.1-0.36,0.36-0.36c0.41,0,0.97-0.1,1.38-0.21
			c0.87-0.2,0.97-1.02,1.18-2.3c0.26-1.79,0.26-5.23,0.26-9.43v-7.68c0-6.76,0-7.99-0.1-9.37c-0.1-1.49-0.36-2.2-1.84-2.41
			c-0.36-0.05-1.13-0.1-1.54-0.1c-0.15,0-0.36-0.21-0.36-0.36c0-0.26,0.21-0.36,0.72-0.36c2.05,0,4.87,0.1,5.12,0.1
			c0.21,0,3.59-0.1,4.97-0.1c0.46,0,0.72,0.1,0.72,0.36c0,0.15-0.21,0.31-0.36,0.31c-0.31,0-0.97,0.05-1.49,0.1
			c-1.33,0.26-1.59,0.92-1.69,2.46c-0.05,1.38-0.05,2.61-0.05,9.37V406.94z"/>
		<path class="st0" d="M443.93,406.83c0,4.2,0,7.63,0.21,9.43c0.15,1.28,0.36,2.1,1.74,2.3c0.62,0.1,1.64,0.21,2.05,0.21
			c0.31,0,0.36,0.21,0.36,0.36c0,0.21-0.21,0.36-0.72,0.36c-2.46,0-5.33-0.15-5.58-0.15c-0.21,0-3.33,0.15-4.66,0.15
			c-0.51,0-0.72-0.1-0.72-0.36c0-0.15,0.1-0.31,0.36-0.31c0.41,0,0.92-0.1,1.33-0.21c0.92-0.2,1.18-1.08,1.33-2.36
			c0.21-1.79,0.21-5.23,0.21-9.43v-18.29l-6.51,0.1c-2.82,0.05-3.89,0.36-4.56,1.38c-0.51,0.77-0.56,1.08-0.72,1.38
			c-0.1,0.36-0.26,0.41-0.46,0.41c-0.1,0-0.31-0.1-0.31-0.36c0-0.46,0.92-4.35,0.97-4.71c0.1-0.26,0.31-0.82,0.46-0.82
			c0.31,0,0.77,0.36,2,0.51c1.28,0.15,3.02,0.21,3.54,0.21h17.01c1.49,0,2.51-0.1,3.23-0.21c0.67-0.1,1.08-0.2,1.28-0.2
			c0.2,0,0.2,0.26,0.2,0.51c0,1.33-0.15,4.46-0.15,4.97c0,0.36-0.2,0.56-0.41,0.56s-0.31-0.15-0.36-0.77l-0.05-0.46
			c-0.15-1.33-1.13-2.31-5.43-2.41l-5.63-0.1V406.83z"/>
		<path class="st0" d="M477.2,385.93c10.14,0,17.83,6.2,17.83,16.34c0,9.73-7.22,17.77-18.08,17.77c-12.34,0-17.62-9.27-17.62-17.11
			C459.33,395.92,464.76,385.93,477.2,385.93z M478.23,418.26c4.05,0,12.19-2.15,12.19-14.75c0-10.45-6.35-15.93-13.47-15.93
			c-7.53,0-12.96,4.71-12.96,14.19C463.99,411.91,470.08,418.26,478.23,418.26z"/>
		<path class="st0" d="M504.45,399.15c0-6.76,0-7.99-0.1-9.37c-0.1-1.49-0.36-2.2-1.84-2.41c-0.36-0.05-1.13-0.1-1.54-0.1
			c-0.15,0-0.36-0.21-0.36-0.36c0-0.26,0.21-0.36,0.72-0.36c2.05,0,5.07,0.1,5.33,0.1c0.46,0,4.25-0.1,5.63-0.1
			c2.87,0,6.04,0.26,8.4,1.9c1.13,0.82,3.12,2.92,3.12,5.94c0,3.23-1.33,6.35-5.53,9.94c3.69,4.61,6.81,8.55,9.42,11.27
			c2.41,2.46,3.89,2.87,5.02,3.02c0.87,0.15,1.33,0.15,1.59,0.15c0.26,0,0.41,0.21,0.41,0.36c0,0.26-0.26,0.36-1.08,0.36h-2.82
			c-2.56,0-3.69-0.26-4.82-0.87c-1.95-1.02-3.59-3.12-6.15-6.4c-1.9-2.36-3.89-5.17-4.87-6.35c-0.21-0.21-0.31-0.26-0.62-0.26
			l-5.74-0.1c-0.2,0-0.31,0.1-0.31,0.36v1.02c0,4.2,0,7.58,0.2,9.37c0.15,1.28,0.41,2.1,1.79,2.3c0.62,0.1,1.59,0.21,2,0.21
			c0.31,0,0.36,0.21,0.36,0.36c0,0.21-0.21,0.36-0.72,0.36c-2.46,0-5.33-0.15-5.53-0.15c-0.05,0-3.07,0.15-4.46,0.15
			c-0.46,0-0.72-0.1-0.72-0.36c0-0.15,0.1-0.36,0.36-0.36c0.41,0,0.97-0.1,1.38-0.21c0.87-0.2,0.97-1.02,1.18-2.3
			c0.25-1.79,0.25-5.23,0.25-9.43V399.15z M508.34,402.84c0,0.26,0.1,0.41,0.31,0.56c0.67,0.36,2.97,0.67,4.97,0.67
			c1.08,0,2.31-0.05,3.38-0.77c1.54-1.02,2.71-3.33,2.71-6.66c0-5.43-2.97-8.55-7.79-8.55c-1.33,0-2.77,0.15-3.23,0.26
			c-0.21,0.1-0.36,0.26-0.36,0.51V402.84z"/>
		<path class="st0" d="M527.23,390.53c0-3.56,2.72-6.15,6.43-6.15c3.7,0,6.43,2.58,6.43,6.15c0,3.42-2.72,6.08-6.43,6.08
			C529.96,396.61,527.23,393.95,527.23,390.53z M538.9,390.46c0-3-2.24-5.03-5.24-5.03s-5.24,2.03-5.24,5.03
			c0,2.93,2.24,5.1,5.31,5.1C536.66,395.56,538.9,393.39,538.9,390.46z M531.28,389.48c0-1.05-0.07-1.54-0.07-1.89
			c0-0.42-0.21-0.49-0.77-0.49c-0.07,0-0.21-0.07-0.21-0.14c0-0.14,0.14-0.21,0.35-0.21h0.35c0.14,0,0.7,0.07,0.91,0.07
			c0.63,0,0.91-0.07,1.47-0.07c1.19,0,2.93,0.21,2.93,1.89c0,0.7-0.21,1.26-1.26,2.1l1.19,1.47c0.91,1.12,1.19,1.19,1.33,1.19
			c0.14,0,0.21,0.07,0.21,0.14c0,0.14-0.07,0.21-0.49,0.21c-0.91,0-1.4,0.07-2.45-1.33l-0.98-1.33h-1.26v0.63
			c0,1.4,0.07,1.47,0.14,1.54c0.14,0.07,0.49,0.14,0.7,0.14c0.14,0,0.21,0,0.21,0.14c0,0.14-0.14,0.21-0.28,0.21h-0.28
			c-0.14,0-0.77-0.07-1.12-0.07c-0.21,0-0.91,0.07-1.05,0.07h-0.35c-0.14,0-0.28,0-0.28-0.14c0-0.14,0.14-0.21,0.28-0.21
			c0.63,0,0.63,0,0.7-0.42c0-0.35,0.07-0.84,0.07-1.96V389.48z M532.54,390.32c0.21,0.14,0.63,0.21,1.05,0.21
			c0.21,0,0.49-0.07,0.7-0.21c0.35-0.21,0.63-0.56,0.63-1.26c0-0.98-0.63-1.68-1.75-1.68c-0.07,0-0.49,0-0.63,0.14V390.32z"/>
		<path class="st0" d="M309.37,483.8c0,4.92,0,8.96,0.26,11.12c0.15,1.49,0.46,2.61,2,2.82c0.72,0.1,1.84,0.21,2.3,0.21
			c0.31,0,0.41,0.15,0.41,0.31c0,0.26-0.26,0.41-0.82,0.41c-2.82,0-6.04-0.15-6.3-0.15c-0.26,0-3.48,0.15-5.02,0.15
			c-0.56,0-0.82-0.1-0.82-0.41c0-0.15,0.1-0.31,0.41-0.31c0.46,0,1.08-0.1,1.54-0.21c1.02-0.2,1.28-1.33,1.49-2.82
			c0.26-2.15,0.26-6.2,0.26-11.12v-9.02c0-7.99,0-9.42-0.1-11.06c-0.1-1.74-0.62-2.61-1.74-2.87c-0.56-0.15-1.23-0.21-1.59-0.21
			c-0.21,0-0.41-0.1-0.41-0.31c0-0.31,0.26-0.41,0.82-0.41c1.69,0,4.92,0.15,5.17,0.15c0.26,0,3.48-0.15,5.02-0.15
			c0.56,0,0.82,0.1,0.82,0.41c0,0.2-0.2,0.31-0.41,0.31c-0.36,0-0.67,0.05-1.28,0.15c-1.38,0.26-1.79,1.13-1.89,2.92
			c-0.1,1.64-0.1,3.07-0.1,11.06V483.8z"/>
		<path class="st0" d="M327.95,492.72c0.1,3.59,0.51,4.66,1.74,4.97c0.82,0.2,1.84,0.26,2.25,0.26c0.2,0,0.36,0.15,0.36,0.36
			c0,0.26-0.31,0.36-0.82,0.36c-2.56,0-4.35-0.15-4.76-0.15c-0.41,0-2.3,0.15-4.35,0.15c-0.46,0-0.72-0.05-0.72-0.36
			c0-0.2,0.15-0.36,0.36-0.36c0.36,0,1.18-0.05,1.84-0.26c1.13-0.31,1.28-1.49,1.28-5.43v-24.95c0-1.74,0.25-2.2,0.62-2.2
			c0.51,0,1.28,0.87,1.74,1.33c0.72,0.72,7.27,7.68,14.24,14.86c4.46,4.61,9.27,9.78,10.65,11.22l-0.46-21.82
			c-0.05-2.82-0.31-3.79-1.69-4.05c-0.82-0.15-1.84-0.2-2.2-0.2c-0.31,0-0.36-0.26-0.36-0.41c0-0.26,0.36-0.31,0.87-0.31
			c2.05,0,4.2,0.1,4.71,0.1c0.51,0,2-0.1,3.84-0.1c0.46,0,0.82,0.05,0.82,0.31c0,0.15-0.21,0.41-0.51,0.41c-0.21,0-0.56,0-1.08,0.1
			c-1.49,0.31-1.59,1.18-1.59,3.79l-0.1,25.51c0,2.87-0.05,3.12-0.36,3.12c-0.46,0-0.92-0.36-3.43-2.66
			c-0.46-0.41-6.97-6.81-11.73-11.78c-5.22-5.48-10.3-10.81-11.68-12.35L327.95,492.72z"/>
		<path class="st0" d="M364.49,498.04c-0.62-0.31-0.67-0.46-0.67-1.64c0-2.15,0.21-3.89,0.26-4.61c0-0.46,0.1-0.72,0.36-0.72
			c0.26,0,0.41,0.15,0.41,0.51c0,0.36,0,0.97,0.15,1.59c0.72,3.18,4.1,4.3,7.12,4.3c4.46,0,6.76-2.51,6.76-5.79
			c0-3.12-1.69-4.61-5.69-7.58l-2.05-1.54c-4.87-3.64-6.45-6.3-6.45-9.32c0-5.12,4.05-8.2,9.99-8.2c1.79,0,3.58,0.26,4.66,0.51
			c0.87,0.21,1.23,0.21,1.59,0.21s0.46,0.05,0.46,0.31c0,0.21-0.21,1.64-0.21,4.61c0,0.67-0.05,0.97-0.36,0.97
			c-0.31,0-0.36-0.2-0.41-0.56c-0.05-0.51-0.41-1.69-0.67-2.15c-0.31-0.51-1.79-2.15-5.84-2.15c-3.28,0-5.99,1.64-5.99,4.71
			c0,2.77,1.38,4.35,5.84,7.38l1.28,0.87c5.48,3.74,7.38,6.76,7.38,10.5c0,2.56-0.97,5.33-4.2,7.43c-1.9,1.23-4.71,1.54-7.17,1.54
			C368.94,499.22,366.33,498.92,364.49,498.04z"/>
		<path class="st0" d="M404.7,486.01c0,4.2,0,7.63,0.21,9.43c0.15,1.28,0.36,2.1,1.74,2.3c0.61,0.1,1.64,0.21,2.05,0.21
			c0.31,0,0.36,0.21,0.36,0.36c0,0.21-0.21,0.36-0.72,0.36c-2.46,0-5.33-0.15-5.58-0.15c-0.2,0-3.33,0.15-4.66,0.15
			c-0.51,0-0.72-0.1-0.72-0.36c0-0.15,0.1-0.31,0.36-0.31c0.41,0,0.92-0.1,1.33-0.21c0.92-0.2,1.18-1.08,1.33-2.36
			c0.21-1.79,0.21-5.23,0.21-9.43v-18.29l-6.51,0.1c-2.82,0.05-3.89,0.36-4.56,1.38c-0.51,0.77-0.56,1.08-0.72,1.38
			c-0.1,0.36-0.26,0.41-0.46,0.41c-0.1,0-0.31-0.1-0.31-0.36c0-0.46,0.92-4.35,0.97-4.71c0.1-0.26,0.31-0.82,0.46-0.82
			c0.31,0,0.77,0.36,2,0.51c1.28,0.15,3.02,0.21,3.54,0.21h17.01c1.49,0,2.51-0.1,3.23-0.21c0.67-0.1,1.07-0.2,1.28-0.2
			c0.21,0,0.21,0.26,0.21,0.51c0,1.33-0.15,4.46-0.15,4.97c0,0.36-0.2,0.56-0.41,0.56c-0.2,0-0.31-0.15-0.36-0.77l-0.05-0.46
			c-0.15-1.33-1.13-2.31-5.43-2.41l-5.63-0.1V486.01z"/>
		<path class="st0" d="M430.54,486.01c0,4.2,0,7.63,0.21,9.43c0.16,1.28,0.31,2.1,1.64,2.3c0.67,0.1,1.64,0.21,2.05,0.21
			c0.26,0,0.36,0.21,0.36,0.36c0,0.21-0.2,0.36-0.72,0.36c-2.51,0-5.43-0.15-5.63-0.15c-0.26,0-3.07,0.15-4.46,0.15
			c-0.46,0-0.72-0.1-0.72-0.36c0-0.15,0.1-0.36,0.36-0.36c0.41,0,0.97-0.1,1.38-0.21c0.87-0.2,1.02-1.02,1.18-2.3
			c0.2-1.79,0.26-5.23,0.26-9.43v-7.68c0-6.76,0-7.99-0.1-9.37c-0.1-1.49-0.46-2.15-1.43-2.36c-0.51-0.1-1.08-0.15-1.38-0.15
			c-0.2,0-0.36-0.21-0.36-0.36c0-0.26,0.21-0.36,0.72-0.36c1.49,0,4.3,0.1,4.56,0.1c0.2,0,3.12-0.1,4.51-0.1
			c0.51,0,0.72,0.1,0.72,0.36c0,0.15-0.2,0.36-0.36,0.36c-0.31,0-0.61,0-1.13,0.1c-1.23,0.26-1.49,0.87-1.59,2.41
			c-0.05,1.38-0.05,2.61-0.05,9.37V486.01z"/>
		<path class="st0" d="M456.19,486.01c0,4.2,0,7.63,0.21,9.43c0.15,1.28,0.36,2.1,1.74,2.3c0.62,0.1,1.64,0.21,2.05,0.21
			c0.3,0,0.36,0.21,0.36,0.36c0,0.21-0.21,0.36-0.72,0.36c-2.46,0-5.33-0.15-5.58-0.15c-0.21,0-3.33,0.15-4.66,0.15
			c-0.51,0-0.72-0.1-0.72-0.36c0-0.15,0.1-0.31,0.36-0.31c0.41,0,0.92-0.1,1.33-0.21c0.92-0.2,1.18-1.08,1.33-2.36
			c0.21-1.79,0.21-5.23,0.21-9.43v-18.29l-6.51,0.1c-2.82,0.05-3.89,0.36-4.56,1.38c-0.51,0.77-0.56,1.08-0.71,1.38
			c-0.1,0.36-0.26,0.41-0.46,0.41c-0.1,0-0.31-0.1-0.31-0.36c0-0.46,0.92-4.35,0.97-4.71c0.1-0.26,0.31-0.82,0.46-0.82
			c0.31,0,0.77,0.36,2,0.51c1.28,0.15,3.02,0.21,3.54,0.21h17.01c1.49,0,2.51-0.1,3.23-0.21c0.67-0.1,1.08-0.2,1.28-0.2
			s0.21,0.26,0.21,0.51c0,1.33-0.15,4.46-0.15,4.97c0,0.36-0.2,0.56-0.41,0.56s-0.31-0.15-0.36-0.77l-0.05-0.46
			c-0.15-1.33-1.13-2.31-5.43-2.41l-5.63-0.1V486.01z"/>
		<path class="st0" d="M477.15,478.32c0-6.76,0-7.99-0.1-9.37c-0.1-1.38-0.36-2.2-1.84-2.41c-0.36-0.05-1.13-0.1-1.54-0.1
			c-0.15,0-0.36-0.21-0.36-0.36c0-0.26,0.2-0.36,0.72-0.36c2.05,0,4.76,0.1,5.17,0.1c0.41,0,3.23-0.1,4.56-0.1
			c0.51,0,0.77,0.1,0.77,0.36c0,0.15-0.2,0.36-0.41,0.36c-0.31,0-0.56,0-1.13,0.1c-1.18,0.2-1.43,0.97-1.54,2.41
			c-0.1,1.38-0.1,2.61-0.1,9.37v6.1c0,6.3,1.38,8.91,3.33,10.65c2.2,2,4.15,2.36,6.71,2.36c2.77,0,5.43-1.23,6.97-3.07
			c2.1-2.51,2.56-6.1,2.56-10.55v-5.48c0-6.76-0.05-7.99-0.1-9.37c-0.05-1.38-0.31-2.2-1.79-2.41c-0.36-0.05-1.13-0.1-1.54-0.1
			c-0.21,0-0.36-0.21-0.36-0.36c0-0.26,0.2-0.36,0.72-0.36c2,0,4.61,0.1,4.87,0.1c0.31,0,2.46-0.1,3.79-0.1
			c0.51,0,0.72,0.1,0.72,0.36c0,0.15-0.16,0.36-0.36,0.36c-0.31,0-0.56,0-1.13,0.1c-1.23,0.26-1.49,0.97-1.59,2.41
			c-0.1,1.38-0.05,2.61-0.05,9.37v4.66c0,4.71-0.61,9.99-4.2,13.06c-3.28,2.82-6.76,3.18-9.42,3.18c-1.49,0-6.2-0.1-9.37-3.07
			c-2.2-2.05-3.94-5.07-3.94-11.42V478.32z"/>
		<path class="st0" d="M528.42,486.01c0,4.2,0,7.63,0.21,9.43c0.15,1.28,0.36,2.1,1.74,2.3c0.61,0.1,1.64,0.21,2.05,0.21
			c0.31,0,0.36,0.21,0.36,0.36c0,0.21-0.21,0.36-0.72,0.36c-2.46,0-5.33-0.15-5.58-0.15c-0.2,0-3.33,0.15-4.66,0.15
			c-0.51,0-0.72-0.1-0.72-0.36c0-0.15,0.1-0.31,0.36-0.31c0.41,0,0.92-0.1,1.33-0.21c0.92-0.2,1.18-1.08,1.33-2.36
			c0.21-1.79,0.21-5.23,0.21-9.43v-18.29l-6.51,0.1c-2.82,0.05-3.89,0.36-4.56,1.38c-0.51,0.77-0.56,1.08-0.72,1.38
			c-0.1,0.36-0.26,0.41-0.46,0.41c-0.1,0-0.31-0.1-0.31-0.36c0-0.46,0.92-4.35,0.97-4.71c0.1-0.26,0.31-0.82,0.46-0.82
			c0.31,0,0.77,0.36,2,0.51c1.28,0.15,3.02,0.21,3.54,0.21h17.01c1.49,0,2.51-0.1,3.23-0.21c0.66-0.1,1.07-0.2,1.28-0.2
			c0.21,0,0.21,0.26,0.21,0.51c0,1.33-0.15,4.46-0.15,4.97c0,0.36-0.2,0.56-0.41,0.56c-0.2,0-0.31-0.15-0.36-0.77l-0.05-0.46
			c-0.15-1.33-1.13-2.31-5.43-2.41l-5.63-0.1V486.01z"/>
		<path class="st0" d="M550.46,478.32c0-6.76,0-7.99-0.1-9.37c-0.1-1.49-0.36-2.2-1.84-2.41c-0.36-0.05-1.13-0.1-1.54-0.1
			c-0.15,0-0.36-0.21-0.36-0.36c0-0.26,0.21-0.36,0.72-0.36c2.05,0,4.97,0.1,5.22,0.1c0.31,0,9.73,0.05,10.76,0
			c0.87-0.05,1.69-0.21,2.05-0.26c0.2-0.05,0.41-0.2,0.62-0.2c0.15,0,0.2,0.2,0.2,0.41c0,0.31-0.26,0.82-0.36,2.05
			c-0.05,0.41-0.15,2.36-0.26,2.87c-0.05,0.2-0.2,0.46-0.41,0.46c-0.26,0-0.36-0.21-0.36-0.56c0-0.31-0.05-1.02-0.26-1.54
			c-0.31-0.72-0.77-1.02-3.23-1.33c-0.77-0.1-5.99-0.15-6.51-0.15c-0.21,0-0.26,0.15-0.26,0.46v11.83c0,0.31,0,0.46,0.26,0.46
			c0.56,0,6.51,0,7.53-0.1c1.08-0.1,1.74-0.15,2.2-0.61c0.31-0.31,0.51-0.56,0.67-0.56c0.15,0,0.26,0.1,0.26,0.36
			c0,0.26-0.26,0.97-0.36,2.41c-0.1,0.87-0.21,2.51-0.21,2.82c0,0.36-0.1,0.82-0.41,0.82c-0.2,0-0.31-0.15-0.31-0.41
			c0-0.41,0-0.87-0.2-1.43c-0.15-0.61-0.56-1.13-2.31-1.33c-1.23-0.15-6.04-0.21-6.81-0.21c-0.26,0-0.31,0.15-0.31,0.31v3.64
			c0,1.49-0.05,6.56,0,7.43c0.1,2.92,0.92,3.48,5.38,3.48c1.18,0,3.33,0,4.51-0.46c1.18-0.51,1.79-1.28,2.05-3.02
			c0.1-0.51,0.21-0.67,0.46-0.67c0.26,0,0.31,0.36,0.31,0.67c0,0.31-0.36,3.28-0.62,4.2c-0.31,1.13-0.77,1.13-2.51,1.13
			c-3.38,0-5.99-0.1-7.84-0.15c-1.9-0.1-3.07-0.1-3.74-0.1c-0.1,0-0.97,0-1.95,0.05c-0.87,0.05-1.9,0.1-2.61,0.1
			c-0.46,0-0.72-0.1-0.72-0.36c0-0.15,0.1-0.36,0.36-0.36c0.41,0,0.97-0.15,1.38-0.21c0.87-0.15,0.97-1.02,1.18-2.3
			c0.26-1.79,0.26-5.23,0.26-9.43V478.32z"/>
	</g>
	<line class="st1" x1="303.07" y1="363.43" x2="569.33" y2="363.43"/>
	<line class="st1" x1="303.08" y1="442.35" x2="569.33" y2="442.35"/>
	<g>
		<linearGradient id="SVGID_1_" gradientUnits="userSpaceOnUse" x1="148.0964" y1="402.7058" x2="15.2641" y2="323.5014">
			<stop  offset="0" style="stop-color:#FFFFFF"/>
			<stop  offset="1" style="stop-color:#FCB853"/>
		</linearGradient>
		<polygon class="st2" points="149.13,406.85 67.26,326.42 46.29,370.09 		"/>
		<linearGradient id="SVGID_2_" gradientUnits="userSpaceOnUse" x1="121.2171" y1="384.791" x2="49.2483" y2="475.8766">
			<stop  offset="0" style="stop-color:#FFFFFF"/>
			<stop  offset="1" style="stop-color:#994209"/>
		</linearGradient>
		<polygon class="st3" points="149.13,406.85 45.62,473.01 39.82,430.42 		"/>
		<linearGradient id="SVGID_3_" gradientUnits="userSpaceOnUse" x1="151.3412" y1="424.8451" x2="80.6663" y2="514.293">
			<stop  offset="0" style="stop-color:#FFFFFF"/>
			<stop  offset="1" style="stop-color:#FFEBB2"/>
		</linearGradient>
		<polygon class="st4" points="148.26,407.28 89.97,471.68 121.67,493.23 		"/>
		<linearGradient id="SVGID_4_" gradientUnits="userSpaceOnUse" x1="134.5763" y1="406.4329" x2="208.3428" y2="576.823">
			<stop  offset="0" style="stop-color:#FFFFFF"/>
			<stop  offset="1" style="stop-color:#4B817E"/>
		</linearGradient>
		<polygon class="st5" points="149.13,406.85 155.39,517.95 199.57,493.11 		"/>
		<linearGradient id="SVGID_5_" gradientUnits="userSpaceOnUse" x1="184.7867" y1="450.4718" x2="229.7079" y2="413.7574">
			<stop  offset="0" style="stop-color:#FFFFFF"/>
			<stop  offset="1" style="stop-color:#994209"/>
		</linearGradient>
		<polygon class="st6" points="149.13,406.85 252.83,442.05 237.4,480.24 		"/>
		<linearGradient id="SVGID_6_" gradientUnits="userSpaceOnUse" x1="114.2265" y1="364.1393" x2="182.2101" y2="308.5758">
			<stop  offset="0" style="stop-color:#FFFFFF"/>
			<stop  offset="1" style="stop-color:#4B817E"/>
		</linearGradient>
		<polygon class="st7" points="149.13,406.85 107.79,298.16 159.07,280.26 		"/>
		<linearGradient id="SVGID_7_" gradientUnits="userSpaceOnUse" x1="143.1353" y1="415.8424" x2="49.0936" y2="391.8262">
			<stop  offset="0" style="stop-color:#FFFFFF"/>
			<stop  offset="1" style="stop-color:#4B817E"/>
		</linearGradient>
		<polygon class="st8" points="149.13,406.85 81,427.97 91.99,374.78 		"/>
		<linearGradient id="SVGID_8_" gradientUnits="userSpaceOnUse" x1="153.1654" y1="412.6379" x2="292.3735" y2="298.862">
			<stop  offset="0" style="stop-color:#FFFFFF"/>
			<stop  offset="1" style="stop-color:#FFEBB2"/>
		</linearGradient>
		<polygon class="st9" points="149.13,406.85 235.8,313.75 261.64,355.34 		"/>
		<linearGradient id="SVGID_9_" gradientUnits="userSpaceOnUse" x1="178.4004" y1="381.084" x2="229.7637" y2="439.4363">
			<stop  offset="0" style="stop-color:#FFFFFF"/>
			<stop  offset="1" style="stop-color:#FCB853"/>
		</linearGradient>
		<polygon class="st10" points="149.13,406.85 236.81,388.42 227.32,441.59 		"/>
		<polygon class="st0" points="137.97,304.39 107.79,298.16 128.89,274.03 159.07,280.26 		"/>
		<polygon class="st0" points="101.85,405.28 81,427.97 71.13,397.48 91.99,374.78 		"/>
		<polygon class="st11" points="261.64,355.34 235.73,351.87 235.8,313.75 261.71,317.21 		"/>
		<polygon class="st12" points="254.76,420.56 227.32,441.59 209.37,409.45 235.97,389.06 236.81,388.42 		"/>
		<polygon class="st12" points="70.62,359.73 46.29,370.09 42.94,336.79 67.26,326.42 		"/>
		<polygon class="st13" points="55.34,455.89 45.62,473.01 30.1,447.55 39.82,430.42 		"/>
		<polygon class="st13" points="264.88,494.03 237.4,480.24 252.83,442.05 280.32,455.84 		"/>
		<polygon class="st0" points="195.39,517.35 155.39,517.95 159.57,493.7 199.57,493.11 		"/>
		
			<linearGradient id="SVGID_10_" gradientUnits="userSpaceOnUse" x1="1304.8944" y1="3069.3894" x2="1377.713" y2="3237.5901" gradientTransform="matrix(-0.7619 -0.6477 0.6477 -0.7619 -834.2219 3600.1562)">
			<stop  offset="0" style="stop-color:#FFFFFF"/>
			<stop  offset="1" style="stop-color:#FCB853"/>
		</linearGradient>
		<polygon class="st14" points="149.13,406.85 203.74,315.71 179.16,310.89 		"/>
		<polygon class="st12" points="188.49,303.03 203.74,315.71 194.4,323.57 179.16,310.89 		"/>
		<polygon class="st11" points="121.67,493.23 109.55,514.46 77.85,492.91 89.97,471.68 		"/>
	</g>
</g>
</svg>
