<?xml version="1.0" encoding="utf-8"?>
<!-- Generator: Adobe Illustrator 24.3.0, SVG Export Plug-In . SVG Version: 6.00 Build 0)  -->
<svg version="1.1" id="Layer_1" xmlns="http://www.w3.org/2000/svg" xmlns:xlink="http://www.w3.org/1999/xlink" x="0px" y="0px"
	 viewBox="0 0 722 319" style="enable-background:new 0 0 722 319;" xml:space="preserve">
<style type="text/css">
	.st0{fill:#E02438;}
</style>
<path class="st0" d="M316.01,287.35c-0.31-0.07-0.51-0.19-0.73-0.2c-0.49-0.03-0.98,0-1.47-0.01c-3.49-0.07-6.98-0.11-10.46-0.22
	c-3.05-0.1-6.11-0.26-9.16-0.41c-2.42-0.12-4.85-0.27-7.27-0.42c-3.14-0.2-6.29-0.4-9.43-0.63c-2.58-0.19-5.17-0.4-7.75-0.63
	c-3.09-0.27-6.19-0.54-9.28-0.84c-3.32-0.33-6.65-0.68-9.96-1.05c-3.48-0.4-6.97-0.8-10.44-1.26c-3.33-0.44-6.65-0.97-9.97-1.45
	c-3.83-0.56-7.67-1.08-11.49-1.7c-3.51-0.57-7.01-1.22-10.5-1.87c-5.94-1.11-11.9-2.18-17.82-3.4c-4.44-0.92-8.85-1.99-13.23-3.12
	c-8.24-2.12-16.5-4.2-24.68-6.55c-6.57-1.89-13.07-4.05-19.54-6.29c-5.82-2.02-11.58-4.21-17.28-6.54
	c-5.17-2.12-10.27-4.45-15.32-6.84c-5.08-2.41-10.07-5.02-15.1-7.54c0.05-0.12,0.11-0.24,0.16-0.35c1.22,0.48,2.44,0.98,3.66,1.45
	c4.54,1.75,9.06,3.57,13.64,5.21c4.29,1.54,8.61,3.04,12.99,4.31c7.81,2.27,15.64,4.51,23.53,6.47c6.65,1.65,13.4,2.92,20.13,4.27
	c4.93,0.99,9.87,1.87,14.82,2.72c3.04,0.52,6.12,0.86,9.17,1.29c2.82,0.4,5.63,0.86,8.44,1.23c1.98,0.26,3.97,0.43,5.95,0.66
	c2.29,0.26,4.57,0.57,6.86,0.82c1.68,0.18,3.37,0.29,5.06,0.44c2.88,0.27,5.76,0.56,8.65,0.82c1,0.09,2,0.16,3,0.22
	c2.6,0.15,5.19,0.29,7.79,0.42c4.16,0.21,8.32,0.42,12.48,0.63c1.42,0.07,2.84,0.16,4.26,0.2c2.82,0.09,5.64,0.18,8.47,0.21
	c7.97,0.09,15.94,0.15,23.91,0.21c1.68,0.01,3.36,0.03,5.04,0c3.07-0.05,6.14-0.11,9.2-0.21c3.51-0.11,7.02-0.26,10.52-0.42
	c2.63-0.12,5.27-0.27,7.9-0.42c2.21-0.13,4.43-0.26,6.64-0.42c3.76-0.27,7.52-0.54,11.27-0.84c3.09-0.25,6.19-0.54,9.28-0.84
	c3.36-0.33,6.72-0.66,10.07-1.06c3.21-0.38,6.4-0.84,9.6-1.24c2.97-0.37,5.95-0.66,8.91-1.07c3.53-0.5,7.04-1.11,10.56-1.66
	c3.66-0.57,7.32-1.06,10.97-1.71c5.08-0.9,10.14-1.9,15.2-2.9c4.92-0.97,9.85-1.95,14.76-2.99c2.73-0.58,5.45-1.26,8.16-1.94
	c5.75-1.44,11.51-2.85,17.23-4.37c3.88-1.03,7.74-2.16,11.57-3.36c6.56-2.05,13.15-4.05,19.63-6.32c7.03-2.46,14.01-5.09,20.93-7.86
	c5.66-2.27,11.24-4.76,16.78-7.32c4.8-2.22,9.54-4.59,14.23-7.04c8.57-4.48,16.84-9.48,24.78-15c3.69-2.56,7.18-5.39,10.75-8.13
	c5.26-4.04,9.96-8.69,14.5-13.49c4.46-4.72,8.39-9.89,11.7-15.51c2.83-4.81,5.29-9.81,6.71-15.22c0.82-3.13,1.36-6.34,1.89-9.53
	c0.3-1.84,0.49-3.73,0.41-5.58c-0.15-3.71-0.53-7.39-1.36-11.03c-1.03-4.53-2.65-8.82-4.73-12.92c-2-3.93-4.33-7.71-7.21-11.06
	c-2.96-3.45-5.92-6.94-9.24-10.02c-3.7-3.43-7.69-6.57-11.77-9.54c-4.19-3.05-8.61-5.81-13.01-8.56c-2.49-1.55-5.12-2.88-7.75-4.21
	c-3.75-1.9-7.48-3.84-11.33-5.52c-5.11-2.24-10.3-4.32-15.51-6.32c-4.57-1.75-9.18-3.47-13.86-4.9c-7.26-2.22-14.55-4.35-21.9-6.22
	c-7.63-1.95-15.33-3.61-23.03-5.27c-4.77-1.03-9.59-1.89-14.4-2.72c-3.78-0.65-7.59-1.17-11.39-1.71
	c-3.64-0.52-7.27-1.01-10.92-1.47c-3.04-0.38-6.08-0.73-9.12-1.05c-3.6-0.38-7.2-0.72-10.81-1.05c-2.44-0.23-4.88-0.45-7.33-0.63
	c-3.14-0.23-6.28-0.43-9.43-0.63c-2.39-0.15-4.77-0.3-7.16-0.42c-3.47-0.16-6.95-0.28-10.42-0.44c-0.3-0.01-0.58-0.17-0.91-0.33
	c2.07-0.08,4.18-0.08,6.42,0c4.22,0.17,8.3,0.23,12.38,0.34c4,0.11,8,0.26,11.99,0.42c2.91,0.12,5.82,0.28,8.74,0.41
	c3.09,0.14,6.17,0.28,9.26,0.42c1.07,0.05,2.14,0.13,3.21,0.22c3.3,0.27,6.6,0.56,9.91,0.83c1.83,0.15,3.65,0.26,5.48,0.44
	c2.64,0.25,5.27,0.55,7.91,0.82c1.51,0.15,3.02,0.26,4.53,0.44c2.11,0.25,4.22,0.56,6.33,0.82c1.95,0.24,3.9,0.4,5.85,0.66
	c2.85,0.38,5.7,0.84,8.55,1.24c2.62,0.37,5.24,0.67,7.85,1.08c2.8,0.44,5.59,0.97,8.39,1.45c3.74,0.64,7.49,1.24,11.22,1.93
	c2.98,0.56,5.95,1.23,8.92,1.85c4.14,0.87,8.29,1.68,12.42,2.62c4.11,0.94,8.22,1.94,12.29,3.07c9.05,2.51,18.12,4.98,27.09,7.73
	c9.34,2.87,18.53,6.19,27.51,10.04c5.26,2.26,10.55,4.47,15.71,6.94c4.75,2.26,9.41,4.73,14.01,7.29c4.14,2.31,8.21,4.76,12.19,7.33
	c5.44,3.51,10.75,7.24,15.59,11.57c3.04,2.72,6.09,5.44,8.94,8.35c2.65,2.72,5.23,5.55,7.51,8.58c2.58,3.43,4.96,7.05,7.11,10.76
	c2.25,3.9,3.91,8.09,5.14,12.45c1.11,3.94,1.92,7.92,2.07,12.02c0.01,0.25,0.13,0.49,0.2,0.73c0,1.76,0,3.51-0.08,5.41
	c-0.38,2.7-0.57,5.28-0.99,7.82c-0.85,5.07-2.58,9.88-4.73,14.53c-1.87,4.04-4.14,7.86-6.69,11.51c-2.97,4.24-6.24,8.24-9.86,11.95
	c-2.12,2.17-4.3,4.29-6.55,6.33c-2.3,2.09-4.62,4.16-7.1,6.03c-4.55,3.45-9.17,6.82-13.86,10.09c-6.28,4.38-12.95,8.15-19.71,11.72
	c-4.53,2.4-9.13,4.67-13.79,6.82c-5.39,2.48-10.81,4.88-16.32,7.08c-6.92,2.76-13.88,5.43-20.93,7.86c-7.27,2.5-14.64,4.72-22,6.95
	c-4.79,1.45-9.62,2.75-14.47,4c-5.28,1.36-10.58,2.62-15.89,3.88c-3.88,0.92-7.76,1.84-11.67,2.63c-5.63,1.13-11.27,2.17-16.92,3.18
	c-5.35,0.96-10.72,1.84-16.09,2.73c-3.51,0.58-7.03,1.17-10.55,1.67c-4.28,0.61-8.58,1.15-12.87,1.69c-3,0.38-6.01,0.72-9.02,1.05
	c-3.39,0.37-6.78,0.72-10.17,1.05c-3.16,0.3-6.32,0.58-9.49,0.84c-2.65,0.22-5.3,0.44-7.96,0.63c-3.21,0.23-6.42,0.43-9.64,0.63
	c-2.42,0.15-4.84,0.3-7.27,0.42c-3.12,0.16-6.24,0.32-9.37,0.41c-3.91,0.11-7.82,0.15-11.72,0.22c-0.25,0-0.49-0.02-0.73,0.01
	c-0.11,0.01-0.21,0.13-0.31,0.2C340.5,287.35,328.3,287.35,316.01,287.35z"/>
<path d="M167.74,71.51c5.56,0,11.02,0,16.54,0c0,35.71,0,71.38,0,107.12c-11.83,0-23.68,0-35.61,0c0-17.5,0-35.03,0-52.82
	c-1.22,1.82-2.3,3.41-3.35,5.02c-1.66,2.55-3.31,5.11-4.96,7.67c-4.54,7.02-9.07,14.04-13.61,21.06c-0.77,1.19-1.54,2.39-2.31,3.58
	c-0.61,0.93-1.06,0.92-1.68-0.04c-3.48-5.33-6.97-10.65-10.44-15.99c-3.21-4.94-6.4-9.88-9.59-14.83c-1.34-2.07-2.66-4.16-4.1-6.42
	c0,17.69,0,35.22,0,52.79c-11.77,0-23.41,0-35.1,0c0-35.71,0-71.38,0-107.14c0.33,0,0.64,0,0.94,0c11.87,0,23.74,0.01,35.62-0.01
	c0.74,0,1.08,0.23,1.48,0.9c3.48,5.76,7.06,11.46,10.57,17.2c3.42,5.59,6.8,11.21,10.2,16.82c0.47,0.78,1,1.53,1.58,2.42
	c0.83-1.32,1.61-2.53,2.36-3.76c3.31-5.42,6.61-10.85,9.93-16.27c3.4-5.56,6.84-11.11,10.2-16.7c0.36-0.61,0.75-0.59,1.26-0.59
	C154.33,71.51,160.99,71.51,167.74,71.51z"/>
<path d="M374.49,168.44c-1.09-1.37-2.12-2.69-3.16-4c-2.24-2.81-4.48-5.62-6.74-8.41c-1.94-2.4-3.93-4.75-5.87-7.15
	c-2.17-2.68-4.3-5.4-6.46-8.09c-1.59-1.98-3.21-3.93-4.81-5.9c-1.37-1.69-2.74-3.38-4.2-5.18c0,16.37,0,32.63,0,48.93
	c-11.94,0-23.79,0-35.7,0c0-35.69,0-71.36,0-107.13c0.36,0,0.69,0,1.03,0c10.58,0,21.16,0,31.73-0.01c0.65,0,1.06,0.13,1.53,0.74
	c1.87,2.45,3.88,4.79,5.83,7.18c1.88,2.31,3.76,4.62,5.63,6.94c1.63,2.02,3.25,4.06,4.87,6.08c2.25,2.8,4.48,5.61,6.74,8.4
	c1.94,2.4,3.92,4.76,5.87,7.16c1.9,2.34,3.76,4.7,5.65,7.04c0.84,1.04,1.7,2.05,2.68,3.24c0-15.69,0-31.17,0-46.72
	c11.94,0,23.8,0,35.71,0c0,35.66,0,71.33,0,107.08c-0.28,0.02-0.58,0.05-0.89,0.05c-10.09,0-20.17,0-30.26,0.01
	c-0.62,0-1.01-0.15-1.43-0.72c-1.52-2.03-3.17-3.95-4.78-5.92C376.5,170.88,375.52,169.69,374.49,168.44z"/>
<path d="M426.88,135.82c0-21.47,0-42.83,0-64.25c30.53,0,61.02,0,91.57,0c0,9.73,0,19.49,0,29.32c-18.7,0-37.42,0-56.2,0
	c0,3.6,0,7.12,0,10.72c17.44,0,34.9,0,52.42,0c0,8.71,0,17.35,0,26.06c-17.44,0-34.9,0-52.42,0c0,3.88,0,7.68,0,11.56
	c18.99,0,37.99,0,57.05,0c0,9.84,0,19.59,0,29.4c-30.76,0-61.52,0-92.41,0C426.88,164.41,426.88,150.17,426.88,135.82z"/>
<path d="M246.4,69.2c1.52-0.07,2.94-0.23,4.36-0.19c2.03,0.06,4.07,0.22,6.1,0.4c1.84,0.16,3.68,0.36,5.51,0.64
	c3.62,0.54,7.13,1.52,10.53,2.87c3.88,1.55,7.56,3.44,10.96,5.89c3.2,2.31,6.11,4.91,8.72,7.88c2.62,2.99,4.88,6.2,6.85,9.63
	c0.15,0.26,0.24,0.55,0.38,0.87c-9.92,5.8-19.78,11.57-29.53,17.28c-1.46-2.03-2.9-4.04-4.34-6.05c-1.28-1.79-3.02-3.07-4.87-4.2
	c-3.86-2.37-8.13-3.01-12.54-2.61c-3.5,0.32-6.66,1.68-9.42,3.92c-4.47,3.64-6.92,8.39-7.88,13.98c-0.31,1.79-0.66,3.61-0.6,5.4
	c0.13,3.95,0.64,7.85,2.24,11.55c1.11,2.57,2.6,4.89,4.53,6.84c2.44,2.47,5.4,4.22,8.86,4.91c6.07,1.21,11.77,0.28,16.83-3.43
	c2.69-1.97,4.69-4.6,6.43-7.43c0.44-0.72,0.88-1.44,1.33-2.18c4.36,2.46,8.71,4.91,13.07,7.36c5.41,3.05,10.82,6.11,16.25,9.15
	c0.44,0.25,0.49,0.39,0.21,0.84c-2.2,3.61-4.54,7.09-7.33,10.29c-4.04,4.63-8.65,8.51-14.04,11.45c-4.83,2.64-9.94,4.55-15.38,5.47
	c-2.52,0.43-5.06,0.77-7.61,1.04c-2.13,0.23-4.28,0.44-6.41,0.4c-2.47-0.05-4.96-0.24-7.4-0.63c-3.07-0.48-6.15-1.07-9.15-1.89
	c-5.85-1.6-11.26-4.24-16.15-7.8c-2.92-2.12-5.69-4.51-8.19-7.1c-4.04-4.18-7.25-9-9.64-14.32c-1.86-4.14-3.31-8.42-3.99-12.92
	c-0.35-2.3-0.63-4.61-0.83-6.93c-0.16-1.87-0.23-3.75-0.21-5.62c0.04-4.81,0.72-9.55,1.97-14.19c0.96-3.55,2.23-7,3.91-10.28
	c1.91-3.72,4.2-7.2,6.88-10.43c3.43-4.14,7.41-7.63,11.88-10.57c3.73-2.46,7.69-4.54,11.95-5.9c3.37-1.07,6.82-1.93,10.27-2.73
	C242.65,69.47,244.49,69.41,246.4,69.2z"/>
<path d="M69.04,195.96c1.18-1.94,2.29-3.83,3.41-5.71c0.25-0.42,0.53-0.7,1.13-0.65c0.93,0.09,1.88,0.02,2.89,0.02
	c0,5.37,0,10.71,0,16.11c-1.02,0-2.09,0-3.27,0c0-3.2,0-6.46,0-9.71c-0.07-0.02-0.15-0.04-0.22-0.07c-1.21,1.93-2.43,3.85-3.63,5.79
	c-0.38,0.61-0.61,0.7-1.03,0c-1.17-1.93-2.41-3.82-3.7-5.84c0,3.32,0,6.54,0,9.82c-1.15,0-2.22,0-3.35,0c0-5.3,0-10.63,0-16.11
	c1.09,0,2.23-0.06,3.36,0.04c0.29,0.03,0.59,0.55,0.8,0.9c1.01,1.68,1.97,3.38,2.98,5.06C68.5,195.81,68.78,195.89,69.04,195.96z"/>
<path d="M291.98,189.63c0.87,0,1.63,0,2.44,0c0,5.4,0,10.74,0,16.18c-0.87,0-1.74,0.03-2.6-0.02c-0.25-0.01-0.55-0.22-0.7-0.43
	c-2.28-3.04-4.53-6.1-6.91-9.3c0,3.32,0,6.48,0,9.69c-1.15,0-2.22,0-3.34,0c0-5.33,0-10.67,0-16.12c0.89,0,1.79-0.05,2.68,0.03
	c0.29,0.03,0.62,0.35,0.83,0.62c2.18,2.93,4.34,5.88,6.67,9.03c0.03-0.56,0.06-0.88,0.06-1.2c0-2.59,0.02-5.18-0.01-7.77
	C291.09,189.69,291.33,189.54,291.98,189.63z"/>
<path d="M325.77,193.41c0.4,0,0.71,0,1.07,0c0,3.84,0.18,7.59-0.06,11.31c-0.19,3-2.02,4.49-5.02,4.64c-2.04,0.1-4.12,0.23-6.05-0.8
	c-0.61-0.32-0.84-0.56-0.45-1.23c0.36-0.6,0.59-1.27,0.9-1.96c1.51,0.97,3.13,1.21,4.83,1.06c0.93-0.09,1.71-0.48,2.09-1.4
	c0.12-0.3,0.1-0.66,0.18-1.24c-1.99,1.06-3.81,1.3-5.7,0.62c-1.23-0.44-2.01-1.37-2.62-2.43c-1.13-2.01-0.52-6.01,1.12-7.35
	c1.98-1.62,4.86-1.98,7.32,0.11c0-0.46,0-0.85,0-1.34C324.22,193.41,324.94,193.41,325.77,193.41 M321.62,201.6
	c0.41-0.28,0.92-0.47,1.21-0.84c0.86-1.1,0.86-2.4,0.11-3.37c-0.72-0.93-2.23-1.26-3.42-0.76c-1.22,0.51-1.93,2.19-1.43,3.47
	C318.46,201.05,320.1,202.28,321.62,201.6z"/>
<path d="M451.47,199.29c-1.29,0-2.48,0-3.72,0c0,1.11,0,2.18,0,3.33c2.73,0,5.48,0,8.29,0c0,1.08,0,2.07,0,3.13
	c-3.85,0-7.72,0-11.65,0c0-5.25,0-10.52,0-15.85c3.78,0,7.58,0,11.44,0c0,0.98,0,1.97,0,3.05c-2.66,0-5.34,0-8.07,0
	c0,1.08,0,2.07,0,3.15c2.38,0,4.78,0,7.23,0c0,1.08,0,2.07,0,3.19C453.86,199.29,452.71,199.29,451.47,199.29z"/>
<path d="M263.16,191.94c0-1.01,0-1.91,0-2.88c1.11,0,2.17,0,3.3,0c0,5.52,0,11.07,0,16.68c-1.06,0-2.15,0-3.31,0
	c0-0.37,0-0.73,0-1.15c-2.22,2.06-5.03,1.79-6.96,0.37c-1.29-0.95-1.84-2.39-2.01-3.86c-0.24-2.01-0.14-4.04,1.21-5.78
	c0.91-1.17,2.06-1.83,3.54-1.92c1.51-0.09,2.97-0.02,4.02,1.38c0.08-0.04,0.16-0.08,0.23-0.13
	C263.16,193.79,263.16,192.92,263.16,191.94 M260.02,202.99c2.41,0.27,3.52-2.46,3.04-4.11c-0.43-1.5-1.72-2.65-2.78-2.53
	c-1.25,0.15-2.52,1.45-2.59,2.66C257.57,201.31,258.23,202.46,260.02,202.99z"/>
<path d="M479.34,204.79c-0.16,0.06-0.33,0.18-0.33,0.29c-0.02,1.46-0.01,2.93-0.01,4.45c-1.11,0-2.18,0-3.3,0
	c0-5.32,0-10.66,0-16.06c1.04,0,2.11,0,3.27,0c0.02,0.36,0.04,0.75,0.07,1.28c0.41-0.28,0.73-0.51,1.06-0.72
	c2.62-1.62,6.66-0.29,7.53,2.91c0.68,2.5,0.75,4.9-0.84,7.13c-0.89,1.26-2.1,1.87-3.62,1.95
	C481.76,206.1,480.41,206.02,479.34,204.79 M484.46,200.18c0-0.38,0-0.77,0-1.15c-0.02-1.3-1.78-3.21-3.56-2.46
	c-1.07,0.45-1.55,1.36-1.85,2.39c-0.48,1.67,0.81,3.82,2.45,4.12C482.74,203.3,484.21,201.96,484.46,200.18z"/>
<path d="M157.71,203.86c-2.26-2.26-2.72-4.92-2.18-7.9c0.54-3,2.25-5.04,5.06-5.97c3.03-1.01,5.94-0.57,8.5,1.5
	c0.03,0.02,0.05,0.05,0.07,0.07c0.76,0.8-0.21,1.45-0.49,1.56c-0.76,0.29-0.56,2.27-1.98,1.21c-1.67-1.23-3.33-1.92-5.34-0.75
	c-1.8,1.04-2.78,3.5-2.16,5.66c0.61,2.13,2.42,3.6,4.52,3.36c0.98-0.11,1.9-0.74,2.83-1.17c0.32-0.15,0.59-0.43,0.69-0.4
	c0.87,0.64,1.75,1.28,2.58,1.89C166.96,206.93,160.61,207.07,157.71,203.86z"/>
<path d="M331.68,197.26c0.87-1.92,2.26-3.16,4.21-3.76c2.17-0.66,5.64,0.36,6.85,2.05c1.59,2.23,1.78,5.34,0.36,7.64
	c-1.91,3.08-5.36,3.36-7.7,2.55c-3.4-1.17-4.32-3.91-4.12-6.95C331.3,198.3,331.53,197.82,331.68,197.26 M340,197.84
	c-0.7-1.14-2.11-1.55-3.34-1.12c-1.77,0.62-2.1,2.4-1.69,4.08c0.46,1.85,2.6,2.6,4.2,1.7C340.29,201.86,341.03,199.97,340,197.84z"
	/>
<path d="M414.22,203.42c-2.07,3.05-6.6,3.55-9.57,1.25c-1.95-1.51-3.47-5.59-0.66-9.19c1.76-2.26,5.78-2.89,8.66-1.08
	C415.29,196.05,416.26,200.42,414.22,203.42 M406.07,200.36c0.49,2.51,2.89,3.04,4.38,2.11c1.09-0.68,1.65-2.29,1.23-3.76
	c-0.57-1.95-2.65-2.78-4.38-1.71C406.12,197.73,405.98,198.91,406.07,200.36z"/>
<path d="M299.51,197.23c0.94-2.58,2.84-3.79,5.4-4.01c2.76-0.24,5.67,2.49,5.74,5.31c0,0.17-0.01,0.35,0,0.52
	c0.17,1.92,0.18,1.92-1.81,1.92c-2.03,0-4.06,0-6.09,0c0.13,2.13,2.67,2.5,4.01,1.85c1.57-0.76,1.57-0.77,2.91,0.42
	c0.17,0.15,0.37,0.27,0.61,0.45c-1.18,1.47-2.59,2.33-4.55,2.35c-1.55,0.02-2.95-0.24-4.27-1.1c-1.48-0.96-2.1-2.43-2.31-3.99
	C299,199.78,299.37,198.53,299.51,197.23 M302.85,197.96c-0.07,0.21-0.14,0.41-0.21,0.63c1.61,0,3.12,0,4.65,0
	c-0.56-1.64-1.04-2.14-1.96-2.25C304.13,196.21,303.35,196.73,302.85,197.96z"/>
<path d="M250.55,200.31c-0.34,0.28-0.67,0.63-1.02,0.64c-2.37,0.05-4.75,0.03-7.12,0.03c0.2,2.15,2.91,2.72,4.41,1.62
	c0.97-0.7,1.55-0.55,2.2,0.3c0.24,0.31,0.59,0.54,0.89,0.8c-1.95,3.11-7.03,3.04-9.35,0.8c-2.2-2.13-2.3-5.74-0.89-8.32
	c1.76-3.24,6.07-3.65,8.66-1.66c1.19,0.91,1.73,2.31,2.01,3.77C250.45,198.92,250.48,199.57,250.55,200.31 M242.86,197.21
	c-0.19,0.45-0.38,0.9-0.58,1.38c1.65,0,3.16,0,4.69,0C246.13,196.13,244.59,195.58,242.86,197.21z"/>
<path d="M178.78,193.37c3.67-0.14,5.77,2.19,5.99,5.58c0.13,2.02,0.12,2.02-1.92,2.02c-1.99,0-3.99,0-5.98,0
	c0.13,2.14,2.68,2.49,4.01,1.85c1.57-0.76,1.57-0.77,2.91,0.42c0.17,0.15,0.37,0.27,0.61,0.45c-1.18,1.47-2.59,2.33-4.54,2.35
	c-1.55,0.02-2.96-0.21-4.27-1.1c-1.42-0.97-2.1-2.4-2.34-3.98c-0.32-2.09,0.11-4.13,1.51-5.76
	C175.74,194.04,177.05,193.27,178.78,193.37 M177.52,196.98c-0.29,0.51-0.57,1.02-0.91,1.62c1.73,0,3.25,0,4.78,0
	C180.62,196.27,179.33,195.69,177.52,196.98z"/>
<path d="M128.05,193.75c2.21,0.96,3.05,2.75,3.33,4.92c0.01,0.1,0,0.21,0,0.31c0.14,1.99,0.14,1.99-1.85,1.99c-2.03,0-4.05,0-6.08,0
	c0.19,2.15,2.9,2.72,4.41,1.63c0.97-0.7,1.55-0.56,2.2,0.29c0.24,0.31,0.59,0.54,0.89,0.8c-1.93,3.11-7.03,3.05-9.35,0.8
	c-2.2-2.13-2.33-5.76-0.88-8.32C122.17,193.62,124.85,192.78,128.05,193.75 M126.5,196.4c-1.98-0.13-2.95,0.58-3.02,2.19
	c1.51,0,3.01,0,4.52,0c0.06-0.08,0.13-0.16,0.19-0.23C127.66,197.74,127.14,197.13,126.5,196.4z"/>
<path d="M499.9,193.66c2.3,1.07,3.34,2.88,3.47,5.26c0.11,2.06,0.1,2.06-1.99,2.06c-1.98,0-3.96,0-5.96,0
	c0.26,2.19,2.99,2.68,4.37,1.65c0.99-0.74,1.61-0.6,2.29,0.3c0.22,0.29,0.55,0.5,0.84,0.75c-1.28,2.49-5.4,3.02-8.02,1.71
	c-2.94-1.47-3.75-5.1-2.75-7.97C493.4,193.8,496.28,192.73,499.9,193.66 M495.44,198.6c1.51,0,3.03,0,4.56,0
	c-0.6-1.86-1.07-2.28-2.45-2.25C496.19,196.38,495.73,197.34,495.44,198.6z"/>
<path d="M370.09,193.76c1.94-0.06,3.84-0.28,5.67-0.01c1.79,0.26,2.62,1.86,2.73,3.49c0.18,2.81,0.05,5.65,0.05,8.52
	c-1.15,0-2.22,0-3.32,0c-0.03-0.23-0.05-0.47-0.08-0.73c-0.1,0.05-0.2,0.08-0.27,0.14c-1.52,1.19-4.45,1.22-5.87,0.09
	c-1.9-1.51-1.82-4.92,0.33-6.18c1.82-1.07,3.79-0.58,6.05-0.47c-0.36-0.62-0.53-1.31-0.96-1.59c-1.55-0.99-3.14-0.39-4.83,0.19
	c-0.32-0.9-0.65-1.83-1.02-2.87C369.09,194.15,369.56,193.98,370.09,193.76 M375.18,201.32c-0.84-1.02-3.14-0.99-3.85,0.05
	c-0.36,0.52-0.18,1.51,0.34,1.85C372.85,203.99,375.39,203.23,375.18,201.32z"/>
<path d="M83.57,193.66c1.92,0,3.78-0.14,5.58,0.14c1.49,0.23,2.68,2,2.71,3.52c0.04,2.79,0.01,5.59,0.01,8.44c-1.12,0-2.19,0-3.32,0
	c-0.02-0.21-0.04-0.44-0.06-0.71c-0.09,0.04-0.19,0.06-0.26,0.11c-1.7,1.12-3.48,1.35-5.34,0.44c-1.55-0.76-2.05-2.15-1.9-3.72
	c0.15-1.56,0.96-2.87,2.58-3.17c1.56-0.29,3.19-0.21,5.01-0.31c-0.22-0.39-0.37-1.09-0.8-1.37c-1.58-1.02-3.2-0.41-4.86,0.17
	c-0.32-0.91-0.63-1.82-0.99-2.84C82.47,194.13,82.98,193.92,83.57,193.66 M84.82,201.2c-0.58,1.01-0.43,1.69,0.46,2.12
	c0.89,0.42,2.32,0.11,2.9-0.64c0.66-0.85,0.36-1.59-0.61-1.94C86.58,200.38,85.78,200.68,84.82,201.2z"/>
<path d="M421.62,205.81c-0.66,0-1.21,0-1.83,0c0-4.12,0-8.2,0-12.34c1.05,0,2.11,0,3.27,0c0.02,0.36,0.04,0.76,0.07,1.27
	c0.25-0.15,0.43-0.23,0.56-0.35c1.4-1.37,3.11-1.34,4.7-0.69c1.54,0.63,2.11,2.08,2.08,3.77c-0.05,2.75-0.01,5.51-0.01,8.31
	c-1.15,0-2.21,0-3.36,0c0-2.16,0.03-4.28-0.02-6.41c-0.01-0.62-0.14-1.3-0.43-1.84c-0.48-0.89-1.43-1.06-2.27-0.71
	c-0.94,0.38-1.23,1.34-1.25,2.29c-0.04,1.85-0.01,3.71-0.01,5.56c0,0.34,0,0.69,0,1.15C422.6,205.81,422.16,205.81,421.62,205.81z"
	/>
<path d="M466.97,204.42c-0.47-0.71-0.9-1.35-1.39-2.07c-0.66,1.02-1.24,1.99-1.9,2.9c-0.2,0.27-0.61,0.51-0.94,0.54
	c-0.97,0.07-1.96,0.03-3.12,0.03c0.87-1.34,1.69-2.59,2.5-3.83c1.82-2.77,1.77-1.96,0.06-4.53c-0.68-1.01-1.37-2.01-2.03-3.03
	c-0.16-0.24-0.21-0.55-0.35-0.93c1.33,0,2.56,0,3.72,0c0.6,0.92,1.21,1.81,1.76,2.74c0.29,0.49,0.44,0.52,0.74,0.01
	c0.55-0.93,1.17-1.82,1.8-2.8c1.11,0,2.33,0,3.77,0c-0.93,1.42-1.78,2.75-2.65,4.04c-1.36,2.01-1.37,2-0.05,4.02
	c0.92,1.4,1.82,2.81,2.79,4.31c-0.98,0-1.82-0.08-2.64,0.02C467.92,205.96,467.32,205.48,466.97,204.42z"/>
<path d="M96.87,202.37c0.19-0.52,0.32-0.65,0.84-0.34c0.83,0.49,1.74,0.87,2.66,1.17c0.41,0.13,0.96,0.03,1.37-0.15
	c0.65-0.27,0.65-0.93,0-1.22c-0.91-0.42-1.88-0.73-2.83-1.06c-2.05-0.71-2.78-2.14-2.6-3.89c0.21-2.07,1.64-3.29,3.61-3.49
	c1.62-0.16,3.11,0.12,4.55,0.85c0.7,0.35,0.75,0.8,0.37,1.41c-0.36,0.57-0.7,1.15-1.01,1.66c-0.94-0.37-1.82-0.82-2.75-1.03
	c-0.42-0.1-1.2,0.14-1.37,0.46c-0.34,0.65,0.37,0.88,0.85,1.08c0.9,0.38,1.84,0.65,2.71,1.08c2.3,1.14,2.3,2.18,1.9,4.6
	c-0.25,1.5-1.57,2.4-3.07,2.52c-2.32,0.19-4.5-0.17-6.44-1.81C96.03,203.64,96.43,203.04,96.87,202.37z"/>
<path d="M224.31,189c2.72,0,2.72,0,2.7,2.58c0,0.24,0,0.48,0,0.64c-0.79,0-1.55-0.12-2.24,0.06c-0.28,0.07-0.41,0.76-0.68,1.31
	c1.07,0,1.93,0,2.85,0c0,0.99,0,1.92,0,2.93c-0.83,0-1.68,0-2.62,0c0,3.11,0,6.13,0,9.23c-1.14,0-2.21,0-3.36,0
	c0-2.99,0-6.01,0-9.12c-0.51,0-0.95,0-1.45,0c0-1.03,0-1.98,0-2.98c0.44,0,0.85,0,1.41,0c-0.09-1.58-0.19-3.23,1.35-4.18
	C222.81,189.14,223.56,189.14,224.31,189z"/>
<path d="M525.87,194.69c0,0.73,0,1.35,0,2.05c-0.91,0-1.76,0-2.73,0c0,1.78-0.03,3.48,0.02,5.18c0.02,0.7,0.77,1.12,1.51,0.92
	c0.35-0.09,0.69-0.26,1.2-0.46c0,1.01,0.06,1.93-0.04,2.83c-0.03,0.23-0.54,0.52-0.87,0.59c-1.5,0.28-3.11,0.74-4.34-0.57
	c-0.46-0.49-0.77-1.31-0.8-2c-0.1-2.12-0.04-4.25-0.04-6.45c-0.51,0-0.95,0-1.43,0c0-1.07,0-2.07,0-3.15c0.46,0,0.9,0,1.41,0
	c0-1.07,0-2.07,0-3.12c1.14,0,2.21,0,3.36,0c0,1.01,0,2.01,0,3.08c0.93,0,1.79,0,2.75,0C525.87,193.98,525.87,194.28,525.87,194.69z
	"/>
<path d="M389.89,204.71c0.15,1.3-0.87,1.16-1.49,1.28c-0.74,0.15-1.54,0.08-2.3,0.02c-1.22-0.09-2.29-1.31-2.3-2.58
	c-0.01-2.19,0-4.39,0-6.66c-0.52,0-0.96,0-1.43,0c0-1.07,0-2.07,0-3.15c0.47,0,0.91,0,1.42,0c0-1.07,0-2.07,0-3.11
	c1.15,0,2.21,0,3.36,0c0,1.02,0,2.02,0,3.09c0.93,0,1.79,0,2.69,0c0,1.08,0,2.07,0,3.15c-0.87,0-1.73,0-2.68,0
	c0,1.75-0.03,3.42,0.01,5.08c0.02,0.78,0.74,1.21,1.54,1c0.35-0.1,0.69-0.26,1.18-0.45C389.89,203.18,389.89,203.9,389.89,204.71z"
	/>
<path d="M352.56,196.86c-0.07,1.47-0.08,2.87-0.08,4.27c0,1.7,0.44,2.03,2.05,1.53c0.19-0.06,0.37-0.14,0.69-0.26
	c0,0.98,0.14,1.9-0.06,2.75c-0.09,0.38-0.85,0.75-1.36,0.84c-0.78,0.14-1.61,0.09-2.4,0.02c-1.21-0.1-2.26-1.33-2.26-2.61
	c-0.01-2.16,0-4.33,0-6.57c-0.47-0.03-0.91-0.05-1.41-0.08c0-0.99,0-1.99,0-3.08c0.4-0.02,0.84-0.04,1.35-0.06c0-0.99,0-1.99,0-3.06
	c1.14,0,2.21,0,3.36,0c0,0.94,0,1.94,0,3.02c0.93,0,1.79,0,2.72,0c0,1.07,0,2.07,0,3.23C354.34,196.78,353.49,196.78,352.56,196.86z
	"/>
<path d="M206.76,205.75c-1.14,0.12-2.21,0.28-3.27,0.25c-1.27-0.03-2.32-1.3-2.33-2.64c-0.01-2.16,0-4.32,0-6.56
	c-0.5,0-0.94,0-1.42,0c0-1.07,0-2.07,0-3.15c0.44,0,0.88,0,1.4,0c0-1.07,0-2.07,0-3.12c1.14,0,2.21,0,3.36,0c0,0.99,0,1.99,0,3.07
	c0.93,0,1.79,0,2.7,0c0,1.08,0,2.07,0,3.15c-0.84,0-1.7,0-2.67,0c0,1.78-0.03,3.48,0.02,5.18c0.02,0.71,0.76,1.13,1.51,0.93
	c0.38-0.1,0.75-0.27,1.2-0.45c0,0.97,0.03,1.84-0.02,2.71C207.23,205.31,206.98,205.5,206.76,205.75z"/>
<path d="M111.18,205.46c-0.76-0.7-1.05-1.48-1.03-2.44c0.04-2.06,0.01-4.11,0.01-6.25c-0.51,0-0.95,0-1.43,0c0-1.08,0-2.07,0-3.15
	c0.47,0,0.9,0,1.42,0c0-1.07,0-2.07,0-3.11c1.15,0,2.21,0,3.36,0c0,1.02,0,2.02,0,3.1c0.94,0,1.79,0,2.7,0c0,1.08,0,2.07,0,3.15
	c-0.88,0-1.74,0-2.68,0c0,1.75-0.03,3.42,0.01,5.09c0.02,0.78,0.74,1.21,1.55,0.98c0.35-0.1,0.69-0.26,1.17-0.44
	c0,0.98,0.03,1.87-0.02,2.76c-0.01,0.2-0.25,0.5-0.43,0.55C114.27,206.12,112.73,206.36,111.18,205.46z"/>
<path d="M513.37,193.45c0.55-0.11,1.01-0.19,1.53-0.28c0,1.35,0,2.64,0,4.02c-1.12-0.11-2.25,0.13-2.78,1.12
	c-0.52,0.98-0.8,2.14-0.92,3.25c-0.15,1.37-0.04,2.78-0.04,4.22c-1.14,0-2.21,0-3.32,0c0-4.11,0-8.19,0-12.31c1.1,0,2.16,0,3.34,0
	c0,0.55,0,1.08,0,1.59C511.93,194.49,512.61,193.98,513.37,193.45z"/>
<path d="M196.33,193.88c0,1.14,0,2.19,0,3.22c-2.5,0.12-3.57,1.14-3.77,4.15c-0.09,1.46-0.02,2.94-0.02,4.48c-1.08,0-2.15,0-3.29,0
	c0-4.02,0-8.1,0-12.25c1.03,0,2.12,0,3.25,0c0.03,0.53,0.06,1.06,0.11,1.9c0.78-1.34,1.74-1.93,2.95-2.14
	C196.05,193.16,196.42,193.12,196.33,193.88z"/>
<path d="M143.16,193.69c0,1.21,0,2.32,0,3.43c-3.14,0.08-3.63,2.04-3.76,4.15c-0.09,1.46-0.02,2.93-0.02,4.47c-1.09,0-2.16,0-3.29,0
	c0-4.04,0-8.11,0-12.26c1.04,0,2.14,0,3.26,0c0.03,0.54,0.05,1.07,0.07,1.59c0.8-1.06,1.79-1.64,3-1.81
	C142.64,193.23,142.91,193.48,143.16,193.69z"/>
<path d="M230.79,196.35c0-1.01,0-1.92,0-2.88c1.11,0,2.18,0,3.3,0c0,4.06,0,8.14,0,12.28c-1.05,0-2.12,0-3.3,0
	C230.79,202.66,230.79,199.56,230.79,196.35z"/>
<path d="M215.24,204.94c0.08,0.65-0.06,0.93-0.71,0.88c-0.83-0.06-1.68-0.01-2.59-0.01c0-4.1,0-8.18,0-12.33c1.02,0,2.09,0,3.29,0
	C215.24,197.24,215.24,201.04,215.24,204.94z"/>
<path d="M361.52,193.41c0.59,0,1.07,0,1.62,0c0,4.12,0,8.2,0,12.34c-1.05,0-2.11,0-3.24,0c0-4.06,0-8.14,0-12.34
	C360.39,193.41,360.9,193.41,361.52,193.41z"/>
<path d="M397.63,205.81c-1,0-1.91,0-2.86,0c0-4.15,0-8.23,0-12.35c1.09,0,2.16,0,3.31,0c0,4.01,0,7.99-0.02,11.97
	C398.07,205.56,397.85,205.68,397.63,205.81z"/>
<path d="M395.38,189c1.01,0,1.91,0,2.86,0c0,1.13,0,2.19,0,3.31c-1.22,0-2.42,0-3.73,0c0-0.95,0.03-1.88-0.01-2.81
	C394.48,188.81,394.94,189.03,395.38,189z"/>
<path d="M359.63,189.25c1.21-0.18,2.41-0.25,3.7-0.34c0,1.15,0,2.22,0,3.36c-1.14,0-2.35,0-3.7,0
	C359.63,191.35,359.63,190.35,359.63,189.25z"/>
<path d="M233.3,192.36c-0.94,0-1.77,0-2.66,0c0-1.12,0-2.19,0-3.31c1.21,0,2.42,0,3.68,0c0,1.07,0,2.14,0,3.31
	C234,192.36,233.7,192.36,233.3,192.36z"/>
<path d="M211.67,190.68c0-0.59,0-1.07,0-1.62c1.25,0,2.46,0,3.72,0c0,1.05,0,2.11,0,3.24c-1.19,0-2.4,0-3.72,0
	C211.67,191.8,211.67,191.29,211.67,190.68z"/>
</svg>
