<svg id="Layer_1" data-name="Layer 1" xmlns="http://www.w3.org/2000/svg" viewBox="0 0 1229.94 346.34"><defs><style>.cls-1{fill:#0b6eb0;}.cls-2{fill:#fff;}.cls-3{opacity:0.5;}.cls-4{fill:#231f20;}</style></defs><path class="cls-1" d="M550.19,350.78V99.72h58.46l104,170.72H681.81L783,99.72h58.46l.72,251.06H776.85l-.71-151.71h11.11L711.58,326H680l-77.83-127h13.63V350.78Z" transform="translate(-70.47 -93.83)"/><path class="cls-1" d="M863,350.78V99.72h71V294.47h119.78v56.31Z" transform="translate(-70.47 -93.83)"/><path class="cls-1" d="M1176.19,355.8a226.82,226.82,0,0,1-59.36-7.71q-28.5-7.71-46.44-19.91l23.31-52.36a164.39,164.39,0,0,0,38.91,17.75,144.82,144.82,0,0,0,43.94,7q14.7,0,23.67-2.69t13.09-7.18a15.08,15.08,0,0,0,4.12-10.58c0-5.74-2.63-10.27-7.89-13.63s-12.07-6.09-20.44-8.25-17.63-4.3-27.79-6.45a286.66,286.66,0,0,1-30.49-8.25A120.85,120.85,0,0,1,1103,230.45a64,64,0,0,1-20.45-21.16q-7.89-13.08-7.89-33.17a71.32,71.32,0,0,1,12.38-40.89q12.38-18.28,37.12-29.41t61.68-11.12a213.73,213.73,0,0,1,48.6,5.56,155.22,155.22,0,0,1,42.5,16.32l-21.88,52.72a169.79,169.79,0,0,0-35.5-14.52,128.07,128.07,0,0,0-34.08-4.85q-14.7,0-23.67,3t-12.91,8.07a18.09,18.09,0,0,0-3.94,11.48q0,8.25,7.71,13.09t20.44,7.89q12.73,3,28,6.28t30.48,8.07a116.09,116.09,0,0,1,27.8,12.91,62.49,62.49,0,0,1,20.26,21.16q7.71,13.09,7.71,32.81A71,71,0,0,1,1275,315.09q-12.37,18.48-36.94,29.59T1176.19,355.8Z" transform="translate(-70.47 -93.83)"/><rect class="cls-1" x="477.17" y="278" width="752.76" height="68.34"/><path class="cls-2" d="M576.83,423.07V388.48h5.29l15.12,25.25h-2.76l14.87-25.25h5.29l.05,34.59h-6.08L608.56,398h1.29l-12.66,21.11h-2.86L581.48,398H583v25.06Z" transform="translate(-70.47 -93.83)"/><path class="cls-2" d="M638.91,423.57q-7.12,0-11.15-4t-4-11.56V388.48h6.43v19.27c0,3.56.76,6.15,2.3,7.76a9.9,9.9,0,0,0,13,0c1.52-1.61,2.27-4.2,2.27-7.76V388.48H654V408q0,7.56-4,11.56T638.91,423.57Z" transform="translate(-70.47 -93.83)"/><path class="cls-2" d="M663,423.07V388.48h6.43v29.16h18.09v5.43Z" transform="translate(-70.47 -93.83)"/><path class="cls-2" d="M696.44,423.07V393.91H685v-5.43h29.36v5.43H702.86v29.16Z" transform="translate(-70.47 -93.83)"/><path class="cls-2" d="M719.17,423.07V388.48h6.42v34.59Z" transform="translate(-70.47 -93.83)"/><path class="cls-2" d="M734.93,423.07V388.48h14.24a19,19,0,0,1,7.88,1.48,11.45,11.45,0,0,1,5.07,4.25,13,13,0,0,1,0,13.15,11.51,11.51,0,0,1-5.07,4.25,19.21,19.21,0,0,1-7.88,1.48H738.49l2.87-3v13Zm6.43-12.3-2.87-3.12h10.38c2.83,0,5-.6,6.4-1.8a7.08,7.08,0,0,0,0-10.16c-1.43-1.18-3.57-1.78-6.4-1.78H738.49l2.87-3.16Z" transform="translate(-70.47 -93.83)"/><path class="cls-2" d="M770.32,423.07V388.48h6.43v29.16h18.08v5.43Z" transform="translate(-70.47 -93.83)"/><path class="cls-2" d="M806.35,417.68h19.52v5.39H799.93V388.48h25.25v5.38H806.35Zm-.49-14.82h17.2v5.29h-17.2Z" transform="translate(-70.47 -93.83)"/><path class="cls-2" d="M846.68,423.07V388.48h6.42v29.16h18.09v5.43Z" transform="translate(-70.47 -93.83)"/><path class="cls-2" d="M876.28,423.07V388.48h6.43v34.59Z" transform="translate(-70.47 -93.83)"/><path class="cls-2" d="M902.77,423.57A25.68,25.68,0,0,1,895,422.4a17,17,0,0,1-5.88-3l2.23-5a17.67,17.67,0,0,0,5.14,2.72,18.47,18.47,0,0,0,6.27,1.09,13.63,13.63,0,0,0,4.4-.59,5.22,5.22,0,0,0,2.47-1.61,3.63,3.63,0,0,0,.79-2.3,3.15,3.15,0,0,0-1.13-2.54,8.34,8.34,0,0,0-2.94-1.54c-1.21-.37-2.54-.73-4-1.06s-2.93-.72-4.39-1.16a18.44,18.44,0,0,1-4-1.73,8.77,8.77,0,0,1-2.94-2.84,8.3,8.3,0,0,1-1.14-4.55,9.38,9.38,0,0,1,1.51-5.16,10.4,10.4,0,0,1,4.6-3.76,18.91,18.91,0,0,1,7.83-1.41,24.94,24.94,0,0,1,6.18.79,18,18,0,0,1,5.34,2.28l-2,5a19.07,19.07,0,0,0-4.79-2.05,18,18,0,0,0-4.75-.67,12.08,12.08,0,0,0-4.32.64,5.27,5.27,0,0,0-2.42,1.68,3.91,3.91,0,0,0-.77,2.37,3.2,3.2,0,0,0,1.11,2.55,8,8,0,0,0,2.92,1.51c1.2.36,2.54.71,4,1.06s3,.73,4.42,1.16a18.28,18.28,0,0,1,4,1.68,8.21,8.21,0,0,1,2.92,2.82,8.36,8.36,0,0,1,1.11,4.5,9.23,9.23,0,0,1-1.51,5.11,10.3,10.3,0,0,1-4.62,3.76A19.06,19.06,0,0,1,902.77,423.57Z" transform="translate(-70.47 -93.83)"/><path class="cls-2" d="M929.66,423.07V393.91H918.2v-5.43h29.35v5.43H936.09v29.16Z" transform="translate(-70.47 -93.83)"/><path class="cls-2" d="M952.4,423.07V388.48h6.42v34.59Z" transform="translate(-70.47 -93.83)"/><path class="cls-2" d="M968.16,423.07V388.48h5.29l21.7,26.63h-2.62V388.48h6.37v34.59h-5.29l-21.69-26.64h2.62v26.64Z" transform="translate(-70.47 -93.83)"/><path class="cls-2" d="M1024.35,423.57a20.45,20.45,0,0,1-7.43-1.31,17.85,17.85,0,0,1-5.91-3.71,16.84,16.84,0,0,1-3.91-5.66,19,19,0,0,1,0-14.23A16.75,16.75,0,0,1,1011,393a18,18,0,0,1,6-3.71,20.69,20.69,0,0,1,7.46-1.31,21.11,21.11,0,0,1,7.94,1.43,15.56,15.56,0,0,1,5.95,4.21l-4,3.95a13.32,13.32,0,0,0-4.38-3,13.47,13.47,0,0,0-5.16-1,13.84,13.84,0,0,0-5,.89,11.58,11.58,0,0,0-4,2.52,11.22,11.22,0,0,0-2.59,3.85,13.49,13.49,0,0,0,0,9.74,11.45,11.45,0,0,0,6.55,6.42,13.54,13.54,0,0,0,5,.89,15.45,15.45,0,0,0,5-.81,13.54,13.54,0,0,0,4.57-2.75l3.66,4.8a19,19,0,0,1-6.31,3.28A24,24,0,0,1,1024.35,423.57Zm7.47-5.24V405.38h6.08v13.79Z" transform="translate(-70.47 -93.83)"/><path class="cls-2" d="M1070.71,423.57a25.63,25.63,0,0,1-7.76-1.17,17,17,0,0,1-5.88-3l2.23-5a17.67,17.67,0,0,0,5.14,2.72,18.47,18.47,0,0,0,6.27,1.09,13.67,13.67,0,0,0,4.4-.59,5.27,5.27,0,0,0,2.47-1.61,3.63,3.63,0,0,0,.79-2.3,3.18,3.18,0,0,0-1.13-2.54,8.34,8.34,0,0,0-2.94-1.54c-1.21-.37-2.54-.73-4-1.06s-2.93-.72-4.4-1.16a18.57,18.57,0,0,1-4-1.73,8.77,8.77,0,0,1-2.94-2.84,8.3,8.3,0,0,1-1.14-4.55,9.3,9.3,0,0,1,1.51-5.16,10.34,10.34,0,0,1,4.6-3.76,18.91,18.91,0,0,1,7.83-1.41,25,25,0,0,1,6.18.79,18,18,0,0,1,5.34,2.28l-2,5a19.07,19.07,0,0,0-4.79-2.05,18,18,0,0,0-4.75-.67,12.08,12.08,0,0,0-4.32.64,5.36,5.36,0,0,0-2.43,1.68,3.9,3.9,0,0,0-.76,2.37,3.2,3.2,0,0,0,1.11,2.55,8,8,0,0,0,2.92,1.51c1.2.36,2.54.71,4,1.06s3,.73,4.43,1.16a18.49,18.49,0,0,1,4,1.68,8.21,8.21,0,0,1,2.92,2.82,8.36,8.36,0,0,1,1.11,4.5,9.23,9.23,0,0,1-1.51,5.11,10.3,10.3,0,0,1-4.62,3.76A19.12,19.12,0,0,1,1070.71,423.57Z" transform="translate(-70.47 -93.83)"/><path class="cls-2" d="M1097.5,417.68H1117v5.39h-26V388.48h25.26v5.38H1097.5Zm-.49-14.82h17.19v5.29H1097Z" transform="translate(-70.47 -93.83)"/><path class="cls-2" d="M1124.19,423.07V388.48h14.23a19,19,0,0,1,7.88,1.48,11.39,11.39,0,0,1,5.07,4.25,13,13,0,0,1,0,13.12,11.3,11.3,0,0,1-5.07,4.2,19.35,19.35,0,0,1-7.88,1.46h-10.67l2.86-2.92v13Zm6.42-12.3-2.86-3.07h10.38q4.24,0,6.4-1.83a6.33,6.33,0,0,0,2.15-5.09,6.26,6.26,0,0,0-2.15-5.09c-1.44-1.18-3.57-1.78-6.4-1.78h-10.38l2.86-3.16Zm16.21,12.3-8.74-12.55H1145l8.79,12.55Z" transform="translate(-70.47 -93.83)"/><path class="cls-2" d="M1170.55,423.07l-15.13-34.59h7l13.49,31.28h-4l13.64-31.28H1192l-15.08,34.59Z" transform="translate(-70.47 -93.83)"/><path class="cls-2" d="M1195.6,423.07V388.48H1202v34.59Z" transform="translate(-70.47 -93.83)"/><path class="cls-2" d="M1227.38,423.57a20.23,20.23,0,0,1-7.34-1.31,17.51,17.51,0,0,1-5.88-3.71,16.9,16.9,0,0,1-3.88-5.66,19,19,0,0,1,0-14.23,16.67,16.67,0,0,1,3.9-5.66,17.9,17.9,0,0,1,5.89-3.71,21.34,21.34,0,0,1,15.12.15,15.31,15.31,0,0,1,5.93,4.32l-4.15,3.91a12.13,12.13,0,0,0-9.24-4.05,13.24,13.24,0,0,0-5,.89,11.4,11.4,0,0,0-3.9,2.52,11.17,11.17,0,0,0-2.57,3.85,13.48,13.48,0,0,0,0,9.79,11.27,11.27,0,0,0,2.57,3.85,11.4,11.4,0,0,0,3.9,2.52,13.24,13.24,0,0,0,5,.89,12.57,12.57,0,0,0,5-1,12.35,12.35,0,0,0,4.2-3.09l4.15,3.95a15.78,15.78,0,0,1-5.93,4.3A19.84,19.84,0,0,1,1227.38,423.57Z" transform="translate(-70.47 -93.83)"/><path class="cls-2" d="M1253.72,417.68h19.53v5.39h-26V388.48h25.25v5.38h-18.83Zm-.49-14.82h17.2v5.29h-17.2Z" transform="translate(-70.47 -93.83)"/><g id="NAR_Photofy_Customizable_Mark_1080x1350" data-name="NAR Photofy_Customizable Mark_1080x1350"><path class="cls-1" d="M95.12,413.1a12.35,12.35,0,0,0-5-10.05c-2.71-1.88-5.65-2.22-9.28-2.22H70.47v38.58h3.75v-34.8H79.8c3.64,0,6.37,0,8.47,1.92a8.53,8.53,0,0,1,2.78,6.63c0,4.39-3.26,7.62-8.25,7.62H79.16L90.6,439.41h4.52l-9.33-15.08c5.41-.39,9.33-5.38,9.33-11.23" transform="translate(-70.47 -93.83)"/><polygon class="cls-1" points="43.23 306.99 43.23 345.56 63.26 345.56 63.26 341.84 47.04 341.84 47.04 328.11 63.26 328.11 63.26 324.31 47.04 324.31 47.04 310.79 63.26 310.79 63.26 306.99 43.23 306.99"/><path class="cls-1" d="M165.72,404.46,173,423.83H158.5Zm-2.2-3.63-15,38.58h4l4.62-12.09h17.15l4.6,12.09H183l-14.93-38.58Z" transform="translate(-70.47 -93.83)"/><polygon class="cls-1" points="127.96 307 127.96 345.58 145.34 345.58 145.34 341.84 131.78 341.84 131.78 307 127.96 307"/><polygon class="cls-1" points="157.34 307 157.34 310.79 165.04 310.79 165.04 345.58 168.84 345.58 168.84 310.79 176.55 310.79 176.55 307 157.34 307"/><path class="cls-1" d="M279.36,436.54c-8.83,0-15.9-7.06-15.9-16.62a16.9,16.9,0,0,1,5.93-12.57,14.81,14.81,0,0,1,9.69-3.59A16.06,16.06,0,0,1,295,419.83c0,9.47-6.95,16.71-15.63,16.71m-.22-36.47a18.7,18.7,0,0,0-13.6,5.58,19.77,19.77,0,0,0-6,14.22c0,11.5,8.54,20.3,19.58,20.3a19.38,19.38,0,0,0,14.73-6.52,19.58,19.58,0,0,0,5.09-13.78A19.37,19.37,0,0,0,293,405.71a19,19,0,0,0-13.85-5.64" transform="translate(-70.47 -93.83)"/><path class="cls-1" d="M340.81,413.1a12.35,12.35,0,0,0-5-10.05c-2.71-1.88-5.64-2.22-9.28-2.22H316.17v38.58h3.75v-34.8h5.57c3.65,0,6.36,0,8.47,1.92a8.53,8.53,0,0,1,2.78,6.63c0,4.39-3.25,7.62-8.25,7.62h-3.64l11.45,18.63h4.51l-9.34-15.08c5.41-.4,9.34-5.38,9.34-11.23" transform="translate(-70.47 -93.83)"/><path class="cls-1" d="M215.18,343V238.64L320.31,343Zm30.1-210.93c27.28-.24,55.46,19.1,55.63,54.22.19,41.89-37.8,51.25-55.76,51l-30,0-.24-105.2ZM185.94,342.48H109.28V131.83h76.79ZM340.43,93.83H70.83V382.36h269.6Z" transform="translate(-70.47 -93.83)"/><path class="cls-1" d="M352.88,399a7,7,0,0,1-4.95,2.07A7,7,0,0,1,341,394.2a7.05,7.05,0,0,1,2.08-4.93,6.73,6.73,0,0,1,4.81-2,6.83,6.83,0,0,1,6.91,6.94,6.5,6.5,0,0,1-2,4.8m.58-10.31a7.62,7.62,0,0,0-5.53-2.27,7.42,7.42,0,0,0-5.41,2.24,7.79,7.79,0,0,0-2.31,5.52,7.77,7.77,0,0,0,7.72,7.74,7.88,7.88,0,0,0,5.53-2.32,7.44,7.44,0,0,0,2.23-5.42,7.7,7.7,0,0,0-2.23-5.49" transform="translate(-70.47 -93.83)"/><path class="cls-1" d="M347.91,393.71h-1.66v-3.2h1.66c1.76,0,2.56.45,2.56,1.64s-.8,1.56-2.56,1.56m3.95-1.63c0-1.72-1.22-2.48-3.69-2.48H344.9v8.93h1.35v-3.94h2.07l1.89,3.94h1.54l-2-4.13a2.27,2.27,0,0,0,2.11-2.32" transform="translate(-70.47 -93.83)"/></g><g class="cls-3"><rect class="cls-4" x="373.79" y="44.98" width="6" height="257.09"/></g></svg>